<svg width="118" height="30" viewBox="0 0 118 30" fill="none" xmlns="http://www.w3.org/2000/svg">
<g clip-path="url(#clip0_1313_6082)">
<path d="M35.8252 9.88232V16.6759C35.8252 18.493 34.3289 19.9666 32.484 19.9666C30.639 19.9666 29.1428 18.493 29.1428 16.6759V9.88232H26.6228V16.5746C26.6228 19.7624 29.2472 22.3472 32.484 22.3472C35.7207 22.3472 38.3452 19.7624 38.3452 16.5746V9.88232H35.8252Z" fill="white" fill-opacity="0.64"/>
<path d="M12.1807 2.02734V17.8399C12.1807 21.8239 8.90221 25.0529 4.85707 25.0529C4.33315 25.0529 3.82369 24.9975 3.33191 24.8946C5.20742 26.8082 7.83826 28.0001 10.752 28.0001C16.4492 28.0001 21.0665 23.4511 21.0665 17.8415V2.02734H12.1807Z" fill="white" fill-opacity="0.64"/>
<path d="M4.8576 22.2159C2.41477 22.2159 0.436401 20.2658 0.436401 17.8599V4.8252H9.28038V17.8599C9.28038 20.2658 7.30044 22.2159 4.8576 22.2159Z" fill="white" fill-opacity="0.64"/>
<path d="M52.9847 15.9226C52.9847 19.7436 50.1176 22.2983 46.905 22.2983C45.052 22.2983 43.5204 21.6652 42.4565 20.5698V26.3045H39.8867V9.88731H42.4565V11.2738C43.5188 10.1785 45.0504 9.54541 46.905 9.54541C50.1176 9.54541 52.9847 12.1254 52.9847 15.9211M50.4889 15.9211C50.4889 13.3901 48.7339 11.7835 46.4855 11.7835C44.4589 11.7835 42.4581 13.3901 42.4581 15.9211C42.4581 18.452 44.4589 20.0586 46.4855 20.0586C48.7339 20.0586 50.4889 18.4774 50.4889 15.9211Z" fill="white" fill-opacity="0.64"/>
<path d="M76.8094 9.83821L76.6361 12.2726C76.4386 12.2489 76.1427 12.2489 75.9193 12.2489C72.8061 12.2489 71.2734 14.3904 71.2734 17.7002V21.9596H68.7031V9.8873H71.2734V12.4673C72.2613 10.8607 73.8188 9.7417 75.9434 9.7417C76.2405 9.7417 76.4869 9.7417 76.8082 9.83982" fill="white" fill-opacity="0.64"/>
<path d="M89.9216 21.9578H87.3519V20.5712C86.2897 21.6665 84.7563 22.2997 82.9035 22.2997C79.6907 22.2997 76.8252 19.745 76.8252 15.924C76.8252 12.1031 79.6907 9.54834 82.9035 9.54834C84.7563 9.54834 86.2897 10.1815 87.3519 11.2768V9.89024H89.9216V21.9578ZM87.3519 15.9225C87.3519 13.3915 85.3512 11.7849 83.3245 11.7849C81.0761 11.7849 79.3211 13.3915 79.3211 15.9225C79.3211 18.4534 81.0761 20.06 83.3245 20.06C85.3512 20.06 87.3519 18.4787 87.3519 15.9225Z" fill="white" fill-opacity="0.64"/>
<path d="M114.526 18.5078C113.66 19.7946 112.426 20.1096 111.209 20.1096C109.406 20.1096 107.749 18.7706 107.503 16.5324H117.437V15.6556C117.313 12.0293 114.595 9.54736 111.309 9.54736C107.848 9.54736 104.958 12.1021 104.958 15.9484C104.958 19.7946 107.873 22.3003 111.209 22.3003C113.925 22.3003 116.1 21.0356 117.114 18.5078H114.528H114.526ZM111.307 11.7871C112.986 11.7871 114.396 12.7606 114.791 14.7311H107.575C107.97 12.7843 109.7 11.7871 111.307 11.7871Z" fill="white" fill-opacity="0.64"/>
<path d="M101.451 2V10.9256C100.34 10.1105 98.9413 9.65146 97.4308 9.65146C93.8373 9.65146 90.9043 12.2156 90.9043 15.9781C90.9043 19.7405 93.8373 22.3284 97.4308 22.3284C101.025 22.3284 103.787 19.8813 103.945 16.2867H103.952V2H101.451ZM97.4308 20.1282C95.3044 20.1282 93.3965 18.4916 93.3965 15.9764C93.3965 13.4613 95.3026 11.8247 97.4308 11.8247C99.5585 11.8247 101.44 13.4613 101.44 15.9764C101.44 18.4916 99.5089 20.1282 97.4308 20.1282Z" fill="white" fill-opacity="0.64"/>
<path d="M64.5794 9.88731V11.2738C63.5171 10.1785 61.9837 9.54541 60.1307 9.54541C56.918 9.54541 54.0525 12.1254 54.0525 15.9211C54.0525 19.7167 56.9197 22.2967 60.1307 22.2967C61.9837 22.2967 63.5171 21.6636 64.5794 20.5683V20.8643C64.5794 23.1024 63.1215 25.0129 60.7976 25.0129C58.4737 25.0129 57.6252 24.0584 56.7107 22.6465L54.7356 23.935C55.7239 25.7362 57.2169 27.3017 60.7976 27.3017C64.6276 27.3017 67.149 24.432 67.149 20.9149V9.88731H64.5794ZM60.5518 20.0602C58.3033 20.0602 56.5484 18.4789 56.5484 15.9226C56.5484 13.3664 58.3033 11.7851 60.5518 11.7851C62.5786 11.7851 64.5794 13.3917 64.5794 15.9226C64.5794 18.4536 62.5768 20.0602 60.5518 20.0602Z" fill="white" fill-opacity="0.64"/>
</g>
<defs>
<clipPath id="clip0_1313_6082">
<rect width="117" height="30" fill="white" transform="translate(0.436401)"/>
</clipPath>
</defs>
</svg>
