<svg width="88" height="30" viewBox="0 0 88 30" fill="none" xmlns="http://www.w3.org/2000/svg">
<g clip-path="url(#clip0_1313_6103)">
<mask id="mask0_1313_6103" style="mask-type:luminance" maskUnits="userSpaceOnUse" x="0" y="0" width="87" height="30">
<path d="M86.5321 0H0.801758V30H86.5321V0Z" fill="white"/>
</mask>
<g mask="url(#mask0_1313_6103)">
<path d="M56.8928 24.963C56.7922 24.9726 56.7228 24.9845 56.6534 24.9845C55.5909 24.9845 54.5283 24.9798 53.4657 24.975C53.2695 24.975 53.2432 24.9486 53.2145 24.7596C53.0709 23.7736 52.9321 22.7852 52.7837 21.7992C52.6305 20.7702 52.4678 19.7435 52.3122 18.7145C52.1926 17.9127 52.0777 17.111 51.9581 16.3093C51.848 15.5579 51.7355 14.804 51.6206 14.0526C51.5632 13.6697 51.501 13.2868 51.4411 12.9039C51.434 12.8632 51.4172 12.8249 51.3957 12.7579C51.3502 12.8081 51.3071 12.8345 51.2928 12.8727C51.1037 13.3203 50.9146 13.7702 50.7304 14.2201C50.5389 14.6844 50.3546 15.1486 50.1632 15.6129C49.9215 16.204 49.6798 16.7927 49.4381 17.3815C49.1963 17.9702 48.9498 18.5589 48.7081 19.15C48.4688 19.7339 48.2367 20.3203 47.9974 20.9042C47.8562 21.2488 47.7102 21.591 47.569 21.9357C47.3249 22.5316 47.0832 23.1298 46.8391 23.7257C46.6907 24.0895 46.5375 24.4533 46.3892 24.8194C46.3461 24.9271 46.2743 24.9774 46.1618 24.9774C45.9034 24.9774 45.6449 24.975 45.3864 24.9774C45.2357 24.9774 45.1471 24.9032 45.0969 24.7668C44.9916 24.4844 44.8815 24.2044 44.7714 23.9244C44.5704 23.4098 44.3693 22.8977 44.1707 22.3832C43.9864 21.9093 43.8045 21.4331 43.6203 20.9592C43.4145 20.4327 43.2063 19.9063 43.0004 19.3798C42.8186 18.9131 42.6415 18.444 42.4596 17.975C42.261 17.4604 42.0575 16.9483 41.8565 16.4338C41.6675 15.9456 41.4808 15.4574 41.2893 14.9692C41.0476 14.3493 40.8035 13.7271 40.5594 13.1073C40.5092 12.9757 40.4613 12.8416 40.4087 12.7004C40.3034 12.7459 40.2938 12.8249 40.2818 12.8991C40.1813 13.5668 40.0856 14.2321 39.9875 14.8998C39.9252 15.3186 39.8558 15.735 39.7936 16.1538C39.729 16.5869 39.6668 17.0201 39.6045 17.4509C39.5543 17.7979 39.5064 18.1473 39.4538 18.4943C39.3868 18.9274 39.3102 19.3582 39.2456 19.789C39.1451 20.4758 39.0517 21.1674 38.9512 21.8543C38.8794 22.3425 38.7909 22.8307 38.7191 23.3189C38.6425 23.8286 38.5779 24.3408 38.5061 24.8529C38.5013 24.8816 38.4893 24.908 38.475 24.9558C38.396 24.963 38.3146 24.9798 38.2309 24.9774C37.1683 24.9774 36.1057 24.9726 35.0432 24.9678C34.981 24.9678 34.9187 24.9558 34.835 24.9463C34.8422 24.8601 34.8446 24.7907 34.8565 24.7213C35.0073 23.8526 35.1581 22.9815 35.3064 22.1127C35.4524 21.256 35.5912 20.3992 35.7372 19.5449C35.8975 18.6044 36.0627 17.6639 36.223 16.7233C36.3594 15.924 36.491 15.1247 36.6275 14.3254C36.7495 13.6098 36.874 12.8967 36.996 12.1835C37.2162 10.8888 37.4363 9.5941 37.6541 8.2994C37.69 8.07922 37.714 7.85905 37.7475 7.63888C37.781 7.42111 37.8169 7.38521 38.0394 7.38521C39.1666 7.38521 40.2938 7.38521 41.421 7.38521C41.4569 7.38521 41.4928 7.38999 41.5287 7.3876C41.6842 7.37803 41.7632 7.4594 41.8134 7.59581C41.9355 7.93324 42.0599 8.26828 42.1868 8.60572C42.7348 10.0632 43.2852 11.5206 43.8309 12.978C44.3669 14.4092 44.9006 15.8403 45.4367 17.2714C45.5563 17.5945 45.6808 17.9151 45.8052 18.2358C45.8172 18.2669 45.8387 18.2933 45.8651 18.3339C45.9823 18.231 46.0134 18.0946 46.0589 17.9726C46.3844 17.0991 46.7051 16.2232 47.0305 15.3497C47.368 14.4427 47.703 13.5357 48.0428 12.6263C48.3468 11.8126 48.6507 11.0013 48.9546 10.1876C49.2729 9.33324 49.5912 8.48128 49.9095 7.62692C50.0004 7.38281 50.0028 7.38281 50.2661 7.38281C51.2999 7.38281 52.3338 7.38281 53.3676 7.38281C53.504 7.38281 53.6404 7.3876 53.7769 7.39239C53.875 7.39717 53.9324 7.44264 53.9492 7.54555C54.0329 8.04811 54.1215 8.54828 54.2076 9.05085C54.3273 9.75922 54.4469 10.4652 54.5666 11.1736C54.6671 11.7743 54.7652 12.3774 54.8681 12.978C54.9806 13.6433 55.0979 14.3063 55.2104 14.9716C55.3085 15.5435 55.4042 16.1179 55.5023 16.6898C55.6196 17.3767 55.7369 18.0611 55.8541 18.748C55.9594 19.3702 56.0623 19.9924 56.1676 20.6146C56.2801 21.2799 56.3998 21.9428 56.5098 22.6081C56.6199 23.2591 56.7228 23.91 56.8281 24.5633C56.8473 24.683 56.864 24.8027 56.888 24.9582L56.8928 24.963Z" fill="white" fill-opacity="0.64"/>
<path d="M71.4048 7.40691C71.5005 7.39973 71.5508 7.39255 71.601 7.39255C72.6492 7.39255 73.6975 7.39255 74.7457 7.39255C75.0951 7.39255 75.0998 7.39733 75.0998 7.75392C75.0998 10.5181 75.0951 13.2822 75.0998 16.0463C75.1022 16.9509 75.1094 17.8555 75.1669 18.7577C75.2195 19.5522 75.4157 20.3181 75.8896 20.9834C76.4975 21.8353 77.3446 22.2637 78.3737 22.3307C78.7805 22.357 79.1922 22.3546 79.6014 22.3307C81.0828 22.2398 82.1334 21.249 82.5306 20.0357C82.7293 19.4254 82.8058 18.8056 82.813 18.1714C82.8298 16.5129 82.8465 14.8545 82.8513 13.196C82.8561 11.3365 82.8513 9.47699 82.8513 7.6175C82.8513 7.55528 82.8585 7.49067 82.8609 7.43323C83.038 7.37819 86.2663 7.3734 86.52 7.43323C86.5248 7.51699 86.5344 7.60793 86.5344 7.69887C86.5344 10.5707 86.5344 13.4425 86.532 16.3143C86.532 17.061 86.532 17.8076 86.52 18.5543C86.5128 19.1071 86.4387 19.6575 86.3214 20.196C86.2304 20.6148 86.1347 21.036 86.0031 21.4452C85.7111 22.3546 85.2564 23.1683 84.5385 23.8145C84.0694 24.2357 83.5381 24.5587 82.959 24.8028C82.131 25.1499 81.2622 25.3413 80.372 25.4155C79.666 25.4729 78.9576 25.5088 78.2445 25.4634C77.5457 25.4179 76.8588 25.3461 76.1792 25.1834C75.2482 24.9608 74.3771 24.6018 73.6257 23.994C73.0657 23.5416 72.6301 22.9864 72.307 22.3427C71.881 21.4931 71.6609 20.5861 71.5269 19.648C71.4407 19.0569 71.4072 18.4634 71.4072 17.8675C71.4072 14.5721 71.4072 11.2767 71.4072 7.98127C71.4072 7.79699 71.4072 7.61272 71.4072 7.41169L71.4048 7.40691Z" fill="white" fill-opacity="0.64"/>
<path d="M69.8969 11.6307C69.8371 11.602 69.8036 11.59 69.7772 11.5708C69.0114 10.9749 68.1403 10.6303 67.183 10.4987C66.4292 10.3934 65.6777 10.4102 64.9406 10.6064C63.4138 11.0132 62.2268 11.8748 61.4466 13.2676C61.1786 13.7462 60.9871 14.256 60.8579 14.7849C60.8172 14.95 60.8053 15.1247 60.7909 15.297C60.7335 15.936 60.7335 16.5749 60.8077 17.2091C60.901 17.9941 61.2049 18.7049 61.6261 19.3654C62.3369 20.4782 63.342 21.2201 64.5841 21.6484C64.9574 21.7777 65.3451 21.8543 65.7424 21.8758C65.7854 21.8758 65.8285 21.8782 65.8716 21.883C66.6039 21.9715 67.3194 21.8662 68.0159 21.6628C68.6046 21.4929 69.1478 21.2105 69.6528 20.8635C69.7054 20.8276 69.7605 20.7917 69.8155 20.7606C69.8323 20.751 69.8562 20.7534 69.9065 20.7438C69.9112 20.8228 69.9232 20.897 69.9232 20.9712C69.9232 22.0122 69.9256 23.0532 69.928 24.0943C69.928 24.2379 69.9232 24.3814 69.928 24.525C69.9328 24.6614 69.8706 24.7308 69.7437 24.7763C68.8415 25.0946 67.9177 25.3339 66.9653 25.4296C65.3618 25.5924 63.8206 25.3483 62.3417 24.7021C60.621 23.9483 59.2665 22.7708 58.2542 21.1961C57.7396 20.3944 57.3424 19.5377 57.1006 18.6163C56.9116 17.8864 56.7776 17.1445 56.7991 16.3835C56.8039 16.204 56.8015 16.0245 56.7991 15.845C56.78 15.0912 56.9116 14.3565 57.103 13.6337C57.328 12.789 57.6822 11.9992 58.1417 11.2573C59.1923 9.55823 60.6569 8.35208 62.49 7.58148C63.1673 7.2967 63.8709 7.10046 64.5984 6.98798C66.1755 6.74627 67.7167 6.90182 69.2268 7.40439C69.356 7.44746 69.4877 7.48575 69.6145 7.53362C69.9089 7.64131 69.9208 7.66046 69.928 7.96678C69.928 8.06011 69.9304 8.15345 69.9304 8.24678C69.9304 9.28781 69.928 10.3288 69.9232 11.3698C69.9232 11.4512 69.9065 11.5326 69.8969 11.6355V11.6307Z" fill="white" fill-opacity="0.64"/>
<path d="M33.5617 24.9679C33.4468 24.9727 33.3319 24.9823 33.2195 24.9823C30.24 24.9823 27.2629 24.9775 24.2834 24.9751C24.2618 24.9751 24.2403 24.9751 24.2188 24.9751C24.0177 24.9703 24.001 24.956 24.001 24.7478C24.001 23.8288 24.001 22.9098 24.001 21.9908C24.001 17.2476 24.0034 12.502 24.0058 7.75873C24.0058 7.65104 24.0058 7.54574 24.0058 7.41411C24.08 7.40454 24.1398 7.39258 24.202 7.39258C25.2718 7.39258 26.3415 7.39258 27.4113 7.39258C27.7008 7.39258 27.6984 7.39736 27.6984 7.67736C27.696 11.2025 27.6913 14.7252 27.6889 18.2503C27.6889 19.4206 27.6984 20.5908 27.7032 21.7611C27.7032 21.9789 27.7176 21.9932 27.9593 21.9932C29.7111 21.9932 31.4629 21.9885 33.2123 21.9885C33.4277 21.9885 33.643 21.9932 33.8584 22.0076C33.9853 22.0148 34.0092 22.0507 33.9901 22.1751C33.8608 23.0773 33.7292 23.9772 33.5976 24.877C33.5952 24.8961 33.5808 24.9153 33.5593 24.9655L33.5617 24.9679Z" fill="white" fill-opacity="0.64"/>
<path d="M3.22837 23.9124C3.30256 23.9053 3.37675 23.9077 3.44615 23.8933C3.71897 23.8335 3.99658 23.8263 4.27419 23.8095C4.89162 23.7713 5.50666 23.7904 6.11931 23.8478C6.90666 23.922 7.68444 24.0632 8.44068 24.2954C9.08444 24.494 9.72342 24.7166 10.3624 24.9295C11.1593 25.1952 11.9634 25.4297 12.7939 25.5661C12.9398 25.5901 13.0882 25.602 13.2366 25.6188C13.4496 25.6403 13.6602 25.6642 13.8732 25.6786C13.9904 25.6858 14.1125 25.6786 14.2298 25.6714C14.4332 25.6547 14.6342 25.6283 14.8376 25.6116C15.2756 25.5781 15.6992 25.468 16.1204 25.3603C16.3214 25.3101 16.5224 25.2502 16.7234 25.1976C16.7545 25.1904 16.7857 25.1928 16.8192 25.1928L16.8479 25.2335C16.8239 25.243 16.7976 25.2454 16.7785 25.2598C16.5152 25.4728 16.2281 25.6499 15.9098 25.7719C15.2086 26.04 14.4786 26.186 13.732 26.2195C13.0188 26.2506 12.3009 26.2673 11.5901 26.1692C10.9846 26.0878 10.3839 25.9849 9.78085 25.894C9.17299 25.8007 8.56752 25.693 7.95726 25.6164C6.97607 25.4943 5.99008 25.4321 4.99931 25.5111C4.59726 25.5422 4.20478 25.6283 3.81948 25.7504C3.28342 25.9203 2.7976 26.1836 2.36444 26.5425C2.35008 26.5545 2.33094 26.5617 2.29504 26.5784C2.27111 26.5449 2.24239 26.5138 2.22325 26.4755C2.01025 26.0495 1.83795 25.6044 1.68718 25.1521C1.47419 24.5107 1.30188 23.8574 1.17265 23.1945C1.08171 22.7326 1.02188 22.2636 0.954871 21.7969C0.866324 21.1771 0.820854 20.5524 0.804102 19.9278C0.78735 19.2721 0.784956 18.6164 0.837606 17.963C0.892649 17.2642 0.945298 16.5678 1.06256 15.8762C1.16068 15.2947 1.26598 14.7131 1.38564 14.134C1.55077 13.3323 1.77333 12.5425 2.01265 11.76C2.35008 10.6615 2.74974 9.58937 3.20444 8.53638C3.62325 7.55997 4.08034 6.60271 4.5829 5.66459C5.07111 4.7504 5.59042 3.85057 6.13846 2.96988C6.69607 2.07723 7.28 1.20134 7.89743 0.349372C7.95966 0.265611 8.01709 0.179457 8.07931 0.0956963C8.10085 0.0669784 8.12239 0.0430468 8.14872 0.0191151C8.19419 -0.0191755 8.23966 -0.0143891 8.28273 0.0262946C8.32102 0.0621921 8.32102 0.102876 8.2923 0.145953C8.22051 0.253645 8.14871 0.361337 8.07931 0.46903C7.60786 1.20612 7.15555 1.95279 6.76068 2.73057C6.52136 3.20441 6.28205 3.67587 6.0523 4.1545C5.84889 4.57809 5.65504 5.00886 5.46837 5.43963C5.32478 5.77228 5.19795 6.10971 5.06632 6.44715C4.9323 6.79416 4.79829 7.14117 4.67384 7.49057C4.56615 7.78971 4.46564 8.09125 4.36991 8.39279C4.25983 8.73741 4.15453 9.08441 4.05162 9.43142C3.97265 9.69706 3.90085 9.9651 3.83145 10.2355C3.75248 10.5418 3.6735 10.8506 3.60171 11.1593C3.52273 11.5063 3.45094 11.8581 3.37675 12.2075C3.32889 12.4348 3.28581 12.6646 3.24273 12.8943C3.20205 13.1193 3.15897 13.3442 3.12547 13.5692C3.06325 13.9904 2.99624 14.414 2.95077 14.8376C2.88615 15.4335 2.84786 16.0342 2.7976 16.6324C2.71384 17.6352 2.73299 18.6355 2.74974 19.6383C2.75453 19.9063 2.78085 20.1719 2.79521 20.44C2.81436 20.7559 2.82393 21.0766 2.85743 21.3901C2.92683 21.9907 3.0082 22.5914 3.08957 23.1921C3.11829 23.4027 3.15658 23.6133 3.19008 23.8239C3.19487 23.8478 3.20205 23.8694 3.21401 23.9101L3.22837 23.9124Z" fill="white" fill-opacity="0.64"/>
<path d="M10.7765 13.653C10.6305 13.4783 7.49307 7.49539 7.45239 7.30394C8.03393 7.98838 8.59393 8.69197 9.16589 9.38599C9.73547 10.0777 10.2955 10.7765 10.8914 11.4657C10.9392 11.413 10.9704 11.3819 10.9943 11.3484C11.9204 10.0418 12.9519 8.8212 13.9977 7.61266C14.0982 7.49539 14.1963 7.37813 14.2969 7.26086C14.3998 7.13881 14.4261 7.13403 14.5529 7.22975C14.9789 7.55044 15.357 7.92377 15.7088 8.32103C16.6302 9.36924 17.3505 10.5467 17.944 11.8055C18.4155 12.8083 18.7888 13.8493 19.0951 14.9142C19.3105 15.6585 19.4924 16.41 19.636 17.171C19.7557 17.81 19.8562 18.4513 19.9423 19.0951C20.0189 19.6503 20.0572 20.2103 20.1242 20.7679C20.1721 21.1724 20.1697 21.5816 20.1984 21.986C20.2606 22.8141 20.2774 23.6421 20.2654 24.4701C20.2582 25.0062 20.2319 25.5423 20.2128 26.0783C20.196 26.5139 20.1792 26.9518 20.1553 27.3874C20.1457 27.5597 20.117 27.732 20.0979 27.9043C20.0907 27.9642 20.062 27.9953 20.0045 27.9977C19.9591 27.9977 19.916 28 19.8705 27.9977C19.8179 27.9953 19.7892 27.9642 19.7868 27.9115C19.7844 27.8708 19.7796 27.8325 19.7796 27.7918C19.7676 27.4496 19.7628 27.1074 19.7437 26.7652C19.7222 26.3727 19.6934 25.9826 19.6599 25.5925C19.6073 24.9942 19.5546 24.3959 19.4876 23.8C19.411 23.13 19.3249 22.4599 19.2339 21.7922C19.1622 21.2657 19.0904 20.7392 18.9922 20.2175C18.8343 19.3751 18.6644 18.5327 18.4801 17.6951C18.3174 16.9628 18.1139 16.2424 17.8914 15.5269C17.6951 14.8975 17.4774 14.2753 17.2261 13.665C16.8408 12.7269 16.3861 11.8247 15.7998 10.9942C15.3498 10.3577 14.8353 9.78326 14.2059 9.31898C14.0647 9.21368 14.0432 9.21608 13.9235 9.35009C13.2247 10.1255 12.5786 10.9416 11.9827 11.7983C11.5902 12.3607 11.2216 12.9351 10.8746 13.5262C10.8507 13.5669 10.8172 13.6028 10.7789 13.6506L10.7765 13.653Z" fill="white" fill-opacity="0.64"/>
</g>
</g>
<defs>
<clipPath id="clip0_1313_6103">
<rect width="87" height="30" fill="white" transform="translate(0.309082)"/>
</clipPath>
</defs>
</svg>
