<svg width="83" height="30" viewBox="0 0 83 30" fill="none" xmlns="http://www.w3.org/2000/svg">
<g clip-path="url(#clip0_1313_6092)">
<mask id="mask0_1313_6092" style="mask-type:luminance" maskUnits="userSpaceOnUse" x="0" y="0" width="83" height="30">
<path d="M82.691 0H0.872803V30H82.691V0Z" fill="white"/>
</mask>
<g mask="url(#mask0_1313_6092)">
<path d="M37.3467 8.58496C33.2484 8.58496 30.198 11.7102 30.198 15.8647C30.198 20.0005 33.2858 23.1445 37.3467 23.1445C40.1914 23.1445 42.5867 21.6287 43.7845 19.1959L40.2475 18.2602C39.6674 19.2145 38.6194 19.8135 37.3467 19.8135C35.5315 19.8135 34.2964 18.7842 33.9782 16.894H44.4207C44.4582 16.5385 44.4955 16.1642 44.4955 15.8086C44.4955 11.8599 41.5949 8.58496 37.3467 8.58496ZM34.0718 14.3676C34.5022 12.7395 35.6812 11.7664 37.3467 11.7664C39.0124 11.7664 40.2287 12.6834 40.7527 14.3676H34.0718Z" fill="white" fill-opacity="0.64"/>
<path d="M16.0691 22.7703H19.7932V15.5279C19.7932 13.2822 21.0284 11.9348 22.8811 11.9348C24.5654 11.9348 25.2952 12.9641 25.2952 15.0226V22.7703H29.0193V14.3864C29.0193 10.8681 27.073 8.64111 23.9477 8.64111C22.3009 8.64111 20.8225 9.25867 19.7745 10.2505V4H16.0691" fill="white" fill-opacity="0.64"/>
<path d="M72.7909 8.97796H68.4866L64.3508 15.0975V4H60.6267V22.7703H64.3508V16.1642L68.7673 22.7703H73.2774L68.1123 15.5466L72.7909 8.97796Z" fill="white" fill-opacity="0.64"/>
<path d="M81.4555 8.90332C79.6776 8.90332 78.4424 9.44603 77.4506 10.6624L76.7956 8.97818H74.4001V22.7705H78.1431V15.603C78.1431 13.3573 78.9664 12.4216 81.0811 12.4216H82.6906V8.90332H81.4555Z" fill="white" fill-opacity="0.64"/>
<path d="M8.20874 19.6637C6.20633 19.6637 4.67177 17.9982 4.67177 15.8647C4.67177 13.7314 6.18762 12.1032 8.20874 12.1032C9.6123 12.1032 10.8662 12.8331 11.4837 14.1618L14.8897 12.9828C13.823 10.2879 11.3153 8.58496 8.24617 8.58496C4.03549 8.58496 0.872803 11.6915 0.872803 15.8274C0.872803 19.9632 4.0542 23.1633 8.19003 23.1633C11.3153 23.1633 13.8978 21.3855 14.9271 18.597L11.465 17.3994C10.941 18.8029 9.64973 19.6637 8.20874 19.6637Z" fill="white" fill-opacity="0.64"/>
<path d="M52.7487 19.6637C50.7462 19.6637 49.2117 17.9982 49.2117 15.8647C49.2117 13.7314 50.7275 12.1032 52.7487 12.1032C54.1522 12.1032 55.406 12.8331 56.0236 14.1618L59.4296 12.9828C58.3629 10.2879 55.8552 8.58496 52.786 8.58496C48.5941 8.58496 45.4314 11.6915 45.4314 15.8274C45.4314 19.9632 48.6129 23.1633 52.7487 23.1633C55.8739 23.1633 58.4565 21.3855 59.4858 18.597L56.0236 17.3994C55.4996 18.8029 54.1897 19.6637 52.7487 19.6637Z" fill="white" fill-opacity="0.64"/>
</g>
</g>
<defs>
<clipPath id="clip0_1313_6092">
<rect width="82" height="30" fill="white" transform="translate(0.872803)"/>
</clipPath>
</defs>
</svg>
