<svg width="115" height="30" viewBox="0 0 115 30" fill="none" xmlns="http://www.w3.org/2000/svg">
<g clip-path="url(#clip0_1313_6067)">
<mask id="mask0_1313_6067" style="mask-type:luminance" maskUnits="userSpaceOnUse" x="0" y="0" width="115" height="30">
<path d="M114.313 0H0V30H114.313V0Z" fill="white"/>
</mask>
<g mask="url(#mask0_1313_6067)">
<path d="M94.3779 21.7076C94.3779 14.332 100.019 7.89022 104.65 7.89022C106.175 7.89022 107.109 8.70974 107.109 9.89137C107.109 12.1974 103.621 14.7703 101.982 15.8567C101.677 16.0663 101.296 16.295 101.296 16.619C101.296 17.0192 101.696 17.2098 102.44 17.2861C105.108 17.5338 107.433 18.3152 107.433 19.8971C107.433 21.4789 105.756 22.489 100.991 22.9464C97.4082 23.2895 95.5976 23.9375 94.5875 24.3187C94.5113 23.9184 94.3779 23.0799 94.3779 21.7076ZM90.8711 19.1347C90.8711 25.405 93.7108 29.0642 94.3207 29.636C96.9126 28.2638 99.2568 27.8254 104.212 27.0059C111.073 25.8624 114.313 23.9375 114.313 20.6785C114.313 17.0383 109.205 15.4755 105.337 15.2659C105.032 15.2468 104.784 15.1325 104.784 14.8847C104.784 14.6941 104.974 14.5798 105.165 14.4273C108.653 11.8544 112.445 8.21422 112.445 4.23099C112.445 2.28702 111.226 0 107.528 0C100.191 0 90.8711 9.14808 90.8711 19.1347Z" fill="white" fill-opacity="0.64"/>
<path d="M7.28035 10.8599C7.28035 12.3465 6.28931 13.3566 4.66933 13.3566H2.30608V8.68722H4.85992C6.09872 8.68722 7.28035 9.37333 7.28035 10.8599ZM10.4441 18.1212C10.4441 16.0629 8.78597 14.462 6.82295 14.0808C8.29045 13.7568 9.52925 12.3084 9.52925 10.555C9.52925 8.38229 7.9474 6.93384 5.45073 6.93384H0V22.1616L6.06061 22.1807C7.68058 22.1807 10.4441 20.7513 10.4441 18.1212ZM7.79493 17.8353C7.77587 19.2457 6.86106 20.3511 4.85992 20.3511H2.30608V15.129H4.78369C6.55613 15.129 7.85211 16.0629 7.79493 17.8353Z" fill="white" fill-opacity="0.64"/>
<path d="M19.7638 15.5293H14.4655C14.4655 13.7187 15.4565 11.9844 17.1718 11.9844C19.0014 12.0034 19.84 13.7949 19.7638 15.5293ZM21.6887 16.9586C21.9174 14.3857 21.0597 10.4978 17.1146 10.4978C14.1606 10.4978 12.1594 13.166 12.1594 16.1201C12.1594 19.4744 13.7794 22.4094 17.1337 22.4094C19.0205 22.4094 20.3927 21.6089 21.46 20.3129L20.1831 19.2075C19.4207 20.1224 18.3916 20.6941 17.0765 20.6941C15.266 20.6941 14.3893 18.7501 14.3702 16.9586H21.6887Z" fill="white" fill-opacity="0.64"/>
<path d="M26.7009 22.3332C25.119 22.3332 24.3757 20.942 24.3757 19.5126V12.1941H22.5652V11.508C23.3466 11.0315 23.7659 10.6885 24.3757 10.0024C24.9856 9.2972 25.2906 8.85886 25.7098 8.00122H26.4722V10.7457H29.0832V12.1941H26.4722V19.0552C26.4722 19.7985 26.7009 20.5036 27.5204 20.6561C28.1874 20.7704 28.7211 20.7133 29.3119 20.5417V21.8949C28.5305 22.2189 27.8635 22.3332 26.7009 22.3332Z" fill="white" fill-opacity="0.64"/>
<path d="M37.8692 22.1616V14.0427C37.8692 13.0898 37.5261 12.194 36.3064 12.194C34.6673 12.194 33.3714 13.1279 33.3714 14.0808V22.1807H31.2559V6H33.3714V11.9653C34.1909 11.3364 35.6203 10.4978 37.2974 10.5169C38.9174 10.5359 39.9656 11.7176 39.9656 13.1469V22.1616H37.8692Z" fill="white" fill-opacity="0.64"/>
<path d="M49.6094 16.4631C49.6094 18.388 49.2282 20.8466 47.2842 20.8466C46.1407 20.8466 44.8638 19.9508 44.8638 19.2266V14.0046C44.8638 13.1279 46.0264 12.1368 47.227 12.175C49.152 12.1559 49.6094 14.5192 49.6094 16.4631ZM51.8583 16.4631C51.8583 13.6806 50.9244 10.5359 47.8941 10.5359C46.6172 10.5359 45.6642 10.9933 44.8257 11.9653L44.6351 10.7456H42.7483V25.9733H44.8638V21.0753C45.7024 22.0091 46.6172 22.4284 47.8941 22.4284C50.791 22.4094 51.8583 19.2266 51.8583 16.4631Z" fill="white" fill-opacity="0.64"/>
<path d="M60.0917 19.2074C60.0917 19.8936 58.6623 20.7702 57.5379 20.7893C56.4325 20.8084 55.7654 20.1032 55.7654 18.8835C55.7654 17.4159 57.4807 16.9204 58.9863 16.7298L60.0917 16.5964V19.2074ZM62.0738 22.1615V13.6042C62.0738 11.5459 60.7969 10.5168 58.5861 10.5168C56.6993 10.5168 55.1937 11.1076 54.0692 12.0033L55.1175 13.2803C55.7845 12.6704 56.7374 12.1177 58.2049 12.1177C59.3294 12.1177 59.9774 12.6894 59.9774 13.852V15.167L58.0906 15.3957C55.613 15.7007 53.5356 16.8442 53.5356 19.1884C53.5356 20.8846 54.6982 22.4474 56.585 22.4474C57.9762 22.4474 58.9863 21.8375 59.9774 20.9989L60.1298 22.1615H62.0738Z" fill="white" fill-opacity="0.64"/>
<path d="M71.2408 18.7693C70.4213 19.5698 69.7924 20.1225 68.687 20.0272C66.9908 19.8556 66.5524 18.2738 66.5524 16.2155C66.5524 14.1571 67.0861 12.1751 68.9347 12.156C70.0211 12.1369 70.8215 12.7468 71.2218 13.7379V18.7693H71.2408ZM73.3372 22.0474V10.7457H71.5267L71.298 11.8511C70.5166 10.9934 69.7352 10.6123 68.5536 10.517C65.8282 10.3264 64.2463 13.3948 64.2463 16.1202C64.2463 18.8455 65.5995 21.7234 68.2867 21.7234C69.5446 21.7234 70.3641 21.3803 71.2599 20.5036V22.1045C71.2599 23.3243 70.3069 24.1629 69.1253 24.3725C67.4672 24.6774 66.4571 24.1247 65.2755 23.1718L64.2845 24.6012C65.3327 25.3826 66.1331 25.9925 68.363 26.0496C70.8596 26.1068 73.3372 24.544 73.3372 22.0474Z" fill="white" fill-opacity="0.64"/>
<path d="M83.0761 15.5293H77.7778C77.7778 13.7187 78.7688 11.9844 80.4841 11.9844C82.3137 12.0034 83.1523 13.7949 83.0761 15.5293ZM84.9438 16.9586C85.1725 14.3857 84.3149 10.4978 80.3888 10.4978C77.4347 10.4978 75.4336 13.166 75.4336 16.1201C75.4336 19.4744 77.0536 22.4094 80.4079 22.4094C82.2947 22.4094 83.6669 21.6089 84.7341 20.3129L83.4572 19.2075C82.6949 20.1224 81.6657 20.6941 80.3698 20.6941C78.5592 20.6941 77.6825 18.7501 77.6634 16.9586H84.9438Z" fill="white" fill-opacity="0.64"/>
<path d="M85.9158 11.7937C85.4202 11.7937 85.02 11.3935 85.02 10.8979C85.02 10.4024 85.4202 10.0022 85.9158 10.0022C86.4113 10.0022 86.8115 10.4024 86.8115 10.8979C86.8115 11.3744 86.4113 11.7937 85.9158 11.7937ZM85.9348 10.1356C85.5346 10.1356 85.1915 10.4596 85.1915 10.8789C85.1915 11.2982 85.5155 11.6222 85.9348 11.6222C86.3541 11.6222 86.6781 11.2982 86.6781 10.8789C86.6781 10.4787 86.3351 10.1356 85.9348 10.1356ZM86.2398 11.4125L85.9729 10.9742H85.7824V11.3935H85.5918V10.3643H85.9539C86.1826 10.3643 86.3541 10.4405 86.3541 10.6502C86.3541 10.7836 86.2779 10.8979 86.1445 10.9361L86.4113 11.3172L86.2398 11.4125ZM85.9158 10.4977H85.7633V10.8408H85.9158C86.0301 10.8408 86.1445 10.7645 86.1445 10.6692C86.1445 10.5168 86.0301 10.4977 85.9158 10.4977Z" fill="white" fill-opacity="0.64"/>
</g>
</g>
<defs>
<clipPath id="clip0_1313_6067">
<rect width="115" height="30" fill="white"/>
</clipPath>
</defs>
</svg>
