<svg width="82" height="30" viewBox="0 0 82 30" fill="none" xmlns="http://www.w3.org/2000/svg">
<mask id="mask0_1313_6144" style="mask-type:luminance" maskUnits="userSpaceOnUse" x="0" y="0" width="82" height="30">
<path d="M82.0001 0H0.181885V30H82.0001V0Z" fill="white"/>
</mask>
<g mask="url(#mask0_1313_6144)">
<path d="M36.6558 8.58496C32.5575 8.58496 29.5071 11.7102 29.5071 15.8647C29.5071 20.0005 32.5949 23.1445 36.6558 23.1445C39.5005 23.1445 41.8958 21.6287 43.0936 19.1959L39.5566 18.2602C38.9765 19.2145 37.9285 19.8135 36.6558 19.8135C34.8406 19.8135 33.6055 18.7842 33.2873 16.894H43.7298C43.7673 16.5385 43.8046 16.1642 43.8046 15.8086C43.8046 11.8599 40.904 8.58496 36.6558 8.58496ZM33.3809 14.3676C33.8113 12.7395 34.9903 11.7664 36.6558 11.7664C38.3215 11.7664 39.5378 12.6834 40.0618 14.3676H33.3809Z" fill="white" fill-opacity="0.64"/>
<path d="M15.3782 22.7703H19.1023V15.5279C19.1023 13.2822 20.3375 11.9348 22.1902 11.9348C23.8745 11.9348 24.6043 12.9641 24.6043 15.0226V22.7703H28.3284V14.3864C28.3284 10.8681 26.3821 8.64111 23.2568 8.64111C21.61 8.64111 20.1316 9.25867 19.0836 10.2505V4H15.3782" fill="white" fill-opacity="0.64"/>
<path d="M72.1 8.97796H67.7957L63.6599 15.0975V4H59.9358V22.7703H63.6599V16.1642L68.0764 22.7703H72.5865L67.4214 15.5466L72.1 8.97796Z" fill="white" fill-opacity="0.64"/>
<path d="M80.7645 8.90332C78.9866 8.90332 77.7515 9.44603 76.7597 10.6624L76.1047 8.97818H73.7092V22.7705H77.4521V15.603C77.4521 13.3573 78.2755 12.4216 80.3902 12.4216H81.9996V8.90332H80.7645Z" fill="white" fill-opacity="0.64"/>
<path d="M7.51782 19.6637C5.51541 19.6637 3.98085 17.9982 3.98085 15.8647C3.98085 13.7314 5.4967 12.1032 7.51782 12.1032C8.92138 12.1032 10.1752 12.8331 10.7928 14.1618L14.1988 12.9828C13.1321 10.2879 10.6244 8.58496 7.55525 8.58496C3.34457 8.58496 0.181885 11.6915 0.181885 15.8274C0.181885 19.9632 3.36329 23.1633 7.49911 23.1633C10.6244 23.1633 13.2069 21.3855 14.2362 18.597L10.7741 17.3994C10.2501 18.8029 8.95881 19.6637 7.51782 19.6637Z" fill="white" fill-opacity="0.64"/>
<path d="M52.0578 19.6637C50.0553 19.6637 48.5208 17.9982 48.5208 15.8647C48.5208 13.7314 50.0366 12.1032 52.0578 12.1032C53.4613 12.1032 54.7151 12.8331 55.3327 14.1618L58.7387 12.9828C57.672 10.2879 55.1643 8.58496 52.0951 8.58496C47.9032 8.58496 44.7405 11.6915 44.7405 15.8274C44.7405 19.9632 47.922 23.1633 52.0578 23.1633C55.183 23.1633 57.7656 21.3855 58.7949 18.597L55.3327 17.3994C54.8087 18.8029 53.4988 19.6637 52.0578 19.6637Z" fill="white" fill-opacity="0.64"/>
</g>
</svg>
