<svg width="87" height="30" viewBox="0 0 87 30" fill="none" xmlns="http://www.w3.org/2000/svg">
<g clip-path="url(#clip0_1313_6114)">
<mask id="mask0_1313_6114" style="mask-type:alpha" maskUnits="userSpaceOnUse" x="73" y="7" width="14" height="17">
<path d="M73.894 7.10107H86.6219V23.0178H73.894V7.10107Z" fill="white"/>
</mask>
<g mask="url(#mask0_1313_6114)">
<path fill-rule="evenodd" clip-rule="evenodd" d="M82.5843 13.8491L79.8922 12.9111C78.1661 12.276 77.4638 11.5797 77.4638 10.1877C77.4638 8.76571 78.2834 7.67626 80.0385 7.67626C80.7406 7.67626 81.4433 7.94887 81.7645 8.43318L85.4185 13.1181H86.0369V8.79587L84.0474 7.91871C82.7889 7.43439 81.326 7.10107 79.8922 7.10107C76.9956 7.10107 73.894 8.34192 73.894 11.7311C73.894 14.2124 75.5029 15.5138 77.9614 16.3911L80.6823 17.329C81.8528 17.7524 82.9066 18.5095 82.9066 20.0827C82.9066 21.414 82.1452 22.3825 80.185 22.3825C79.6586 22.3825 78.839 22.2311 78.2245 21.4749L74.5691 16.6966H73.9814V21.237L75.9132 22.1099C77.2294 22.685 78.6046 23.018 80.3893 23.018C83.1984 23.018 86.6219 22.1099 86.6219 18.4488C86.6219 15.9068 84.9253 14.7269 82.5843 13.8491Z" fill="white" fill-opacity="0.64"/>
</g>
<path fill-rule="evenodd" clip-rule="evenodd" d="M55.93 13.3344L49.8145 22.6241H48.3808L43.3706 7.49463H48.2727L51.6871 18.5692H51.863L55.2863 13.3645C56.0765 12.0939 56.0176 11.7005 55.8713 11.4281L53.9111 8.09958V7.49463H57.7443C58.0367 8.7952 58.0077 10.1575 55.93 13.3344Z" fill="white" fill-opacity="0.64"/>
<path fill-rule="evenodd" clip-rule="evenodd" d="M37.7619 22.1633C35.4725 22.887 33.6412 21.2609 32.1377 16.1755C30.6084 11.0022 31.2735 8.68287 33.5625 7.95905C35.8516 7.23542 37.6573 8.77335 39.1866 13.9467C40.6899 19.0326 40.0512 21.4399 37.7619 22.1633ZM35.6633 7.10107C31.1276 7.10107 27.4409 10.3693 27.4409 15.0596C27.4409 19.7498 31.1276 23.0174 35.6633 23.0174C40.1981 23.0174 43.8554 19.7498 43.8554 15.0596C43.8554 10.3693 40.1981 7.10107 35.6633 7.10107Z" fill="white" fill-opacity="0.64"/>
<mask id="mask1_1313_6114" style="mask-type:alpha" maskUnits="userSpaceOnUse" x="0" y="7" width="27" height="16">
<path d="M0.745605 7.10107H26.1432V22.6237H0.745605V7.10107Z" fill="white"/>
</mask>
<g mask="url(#mask1_1313_6114)">
<path fill-rule="evenodd" clip-rule="evenodd" d="M26.1435 22.0188V22.6237H21.9886V22.0188V20.6875V12.7593C21.9886 10.5504 21.1696 9.40121 19.5601 9.40121C17.5996 9.40121 16.6339 11.2768 16.6339 13.5158V20.6875V22.0188V22.6237H12.479V22.0188V20.6875V12.6381C12.479 10.5204 11.7183 9.40121 10.1091 9.40121C8.17793 9.40121 7.12431 11.3377 7.12431 13.7277V20.6875V22.0188V22.6237H2.96957V22.0188V20.6875V9.43098L0.745605 8.09947V7.49452H7.12431V11.4887C7.73906 8.91651 9.34807 7.10107 12.128 7.10107C14.4977 7.10107 16.1656 8.40243 16.546 11.1863C17.2193 8.76513 18.8283 7.10107 21.5495 7.10107C24.3588 7.10107 26.1435 8.88596 26.1435 12.6684V20.6875V22.0188Z" fill="white" fill-opacity="0.64"/>
</g>
<mask id="mask2_1313_6114" style="mask-type:alpha" maskUnits="userSpaceOnUse" x="57" y="7" width="16" height="17">
<path d="M57.2925 7H72.921V23.0176H57.2925V7Z" fill="white"/>
</mask>
<g mask="url(#mask2_1313_6114)">
<path fill-rule="evenodd" clip-rule="evenodd" d="M63.5084 7.83222C65.7746 7.16499 67.4322 8.49416 68.6993 12.8442C68.6372 13.1481 68.4283 13.4846 67.037 13.9134L65.4789 14.3664L61.7435 15.4008C60.6354 11.0089 61.3134 8.4781 63.5084 7.83222ZM72.208 16.6959C71.5482 18.4542 70.3342 19.5141 68.733 19.9578C65.5956 20.827 62.799 18.774 61.895 15.986L72.9138 12.9168C71.6868 8.1816 67.704 6.13683 63.3793 7.33518C59.0556 8.53352 56.3968 12.654 57.5703 17.1838C58.7446 21.7141 63.2109 23.9001 67.592 22.6859C70.5249 21.8728 72.3936 19.7244 72.921 16.6959H72.208Z" fill="white" fill-opacity="0.64"/>
</g>
</g>
<defs>
<clipPath id="clip0_1313_6114">
<rect width="86" height="30" fill="white" transform="translate(0.745605)"/>
</clipPath>
</defs>
</svg>
