<svg width="658" height="670" viewBox="0 0 658 670" fill="none" xmlns="http://www.w3.org/2000/svg">
<path d="M388.791 307.484H225.409L49 130.532H568.457L388.791 307.484Z" fill="url(#paint0_linear_1466_9414)" fill-opacity="0.16"/>
<g filter="url(#filter0_f_1466_9414)">
<circle cx="331.5" cy="343.5" r="146.5" fill="url(#paint1_radial_1466_9414)" fill-opacity="0.05"/>
</g>
<g filter="url(#filter1_b_1466_9414)">
<path d="M388.503 474.123L437.643 428.08L437.643 261.347L388.503 307.389V428.081V474.123Z" fill="url(#paint2_linear_1466_9414)" fill-opacity="0.06"/>
<path d="M274.006 428.081L224.866 474.123V307.389L274.006 261.347V307.389V428.081Z" fill="url(#paint3_linear_1466_9414)" fill-opacity="0.06"/>
<path d="M274.006 428.081L224.866 474.123H388.503V428.081L274.006 428.081Z" fill="url(#paint4_linear_1466_9414)" fill-opacity="0.06"/>
<path d="M274.006 307.389V428.081L388.503 428.081V307.389H274.006Z" fill="url(#paint5_linear_1466_9414)" fill-opacity="0.06"/>
<path d="M388.503 307.389L437.643 261.347H274.006V307.389H388.503Z" fill="url(#paint6_linear_1466_9414)" fill-opacity="0.06"/>
<path d="M437.643 428.08L388.503 474.123M437.643 428.08L437.643 261.347M437.643 428.08L388.503 428.081M388.503 474.123H224.866M388.503 474.123V428.081M224.866 474.123L274.006 428.081M224.866 474.123V307.389M274.006 428.081L388.503 428.081M274.006 428.081V307.389M437.643 261.347L388.503 307.389M437.643 261.347H274.006M388.503 307.389V428.081M388.503 307.389H274.006M224.866 307.389L274.006 261.347M224.866 307.389H274.006M274.006 261.347V307.389" stroke="white" stroke-opacity="0.24" stroke-width="1.2" stroke-linejoin="round"/>
</g>
<path d="M274.006 428.081L224.866 474.123H388.503V428.081L274.006 428.081Z" fill="url(#paint7_linear_1466_9414)" fill-opacity="0.16"/>
<path d="M388.503 307.389L437.643 261.347H274.006V307.389H388.503Z" fill="url(#paint8_linear_1466_9414)" fill-opacity="0.16"/>
<path d="M274.006 261.347L224.866 307.389H274.006V261.347Z" fill="url(#paint9_linear_1466_9414)" fill-opacity="0.16"/>
<path d="M388.503 474.123L437.643 428.08L388.503 428.081V474.123Z" fill="url(#paint10_linear_1466_9414)" fill-opacity="0.16"/>
<path d="M270.806 428.082C270.806 429.849 272.239 431.282 274.006 431.282C275.774 431.282 277.206 429.849 277.206 428.082C277.206 426.315 275.774 424.882 274.006 424.882C272.239 424.882 270.806 426.315 270.806 428.082ZM434.443 428.082C434.443 429.849 435.876 431.282 437.643 431.282C439.411 431.282 440.843 429.849 440.843 428.082C440.843 426.315 439.411 424.882 437.643 424.882C435.876 424.882 434.443 426.315 434.443 428.082ZM274.006 428.682H437.643V427.482H274.006V428.682Z" fill="white" fill-opacity="0.64"/>
<path d="M270.806 261.347C270.806 263.114 272.239 264.547 274.006 264.547C275.774 264.547 277.206 263.114 277.206 261.347C277.206 259.579 275.774 258.147 274.006 258.147C272.239 258.147 270.806 259.579 270.806 261.347ZM434.443 261.347C434.443 263.114 435.876 264.547 437.643 264.547C439.411 264.547 440.843 263.114 440.843 261.347C440.843 259.579 439.411 258.147 437.643 258.147C435.876 258.147 434.443 259.579 434.443 261.347ZM274.006 261.947H437.643V260.747H274.006V261.947Z" fill="white" fill-opacity="0.64"/>
<path d="M385.303 474.123C385.303 475.89 386.736 477.323 388.503 477.323C390.271 477.323 391.703 475.89 391.703 474.123C391.703 472.356 390.271 470.923 388.503 470.923C386.736 470.923 385.303 472.356 385.303 474.123ZM221.666 474.123C221.666 475.89 223.099 477.323 224.866 477.323C226.634 477.323 228.066 475.89 228.066 474.123C228.066 472.356 226.634 470.923 224.866 470.923C223.099 470.923 221.666 472.356 221.666 474.123ZM388.503 473.523H224.866V474.723H388.503V473.523Z" fill="white" fill-opacity="0.64"/>
<path d="M385.303 307.388C385.303 309.155 386.736 310.588 388.503 310.588C390.271 310.588 391.703 309.155 391.703 307.388C391.703 305.62 390.271 304.188 388.503 304.188C386.736 304.188 385.303 305.62 385.303 307.388ZM221.666 307.388C221.666 309.155 223.099 310.588 224.866 310.588C226.634 310.588 228.066 309.155 228.066 307.388C228.066 305.62 226.634 304.188 224.866 304.188C223.099 304.188 221.666 305.62 221.666 307.388ZM388.503 306.788H224.866V307.988H388.503V306.788Z" fill="white" fill-opacity="0.64"/>
<g filter="url(#filter2_bf_1466_9414)">
<path d="M491.167 228.653C493.106 222.533 478.642 212.492 458.862 206.227C439.082 199.961 421.475 199.844 419.536 205.964L418.356 209.692C418.16 210.309 418.131 210.967 418.258 211.656C419.39 217.8 432.876 226.485 450.661 232.119C468.445 237.752 484.473 238.415 488.935 234.043C489.436 233.553 489.791 232.999 489.987 232.381L491.167 228.653Z" fill="url(#paint11_linear_1466_9414)" fill-opacity="0.16"/>
<path d="M419.536 205.964C421.475 199.844 439.082 199.961 458.862 206.227C478.642 212.492 493.106 222.533 491.167 228.653M419.536 205.964C419.341 206.582 419.312 207.239 419.439 207.929C419.443 207.948 419.447 207.968 419.45 207.988C420.657 214.128 434.114 222.776 451.842 228.391C469.569 234.006 485.551 234.683 490.073 230.357C490.087 230.344 490.101 230.33 490.116 230.316C490.617 229.825 490.972 229.271 491.167 228.653M419.536 205.964L418.356 209.692C418.16 210.309 418.131 210.967 418.258 211.656C419.39 217.8 432.876 226.485 450.661 232.119C468.445 237.752 484.473 238.415 488.935 234.043C489.436 233.553 489.791 232.999 489.987 232.381L491.167 228.653" stroke="white" stroke-opacity="0.16" stroke-width="0.587832" stroke-linejoin="round"/>
<path d="M490.116 230.316C490.616 229.825 490.972 229.271 491.167 228.653L489.986 232.381C489.791 232.999 489.436 233.553 488.935 234.043C484.473 238.415 468.445 237.752 450.661 232.118C432.876 226.485 419.39 217.8 418.258 211.656C418.131 210.967 418.16 210.309 418.356 209.692L419.536 205.964C419.341 206.582 419.312 207.239 419.439 207.929C419.443 207.948 419.446 207.968 419.45 207.988C420.657 214.128 434.114 222.776 451.841 228.391C469.569 234.006 485.551 234.683 490.073 230.357C490.087 230.344 490.101 230.33 490.116 230.316Z" fill="url(#paint12_linear_1466_9414)" fill-opacity="0.16" stroke="white" stroke-opacity="0.16" stroke-width="0.587832" stroke-linejoin="round"/>
<path d="M458.862 206.227C478.642 212.492 493.106 222.533 491.167 228.653C490.972 229.271 490.617 229.825 490.116 230.316C490.101 230.33 490.087 230.344 490.073 230.357C485.551 234.683 469.569 234.006 451.842 228.391C434.114 222.776 420.657 214.128 419.45 207.988C419.447 207.968 419.443 207.948 419.439 207.929C419.312 207.239 419.341 206.582 419.536 205.964C421.475 199.844 439.082 199.961 458.862 206.227Z" fill="url(#paint13_linear_1466_9414)" fill-opacity="0.16" stroke="white" stroke-opacity="0.16" stroke-width="0.587832" stroke-linejoin="round"/>
</g>
<g filter="url(#filter3_f_1466_9414)">
<path d="M414.861 126.26C416.488 121.123 404.347 112.694 387.743 107.435C371.139 102.176 356.36 102.077 354.733 107.215L353.742 110.344C353.577 110.862 353.553 111.414 353.66 111.993C354.61 117.15 365.931 124.44 380.859 129.169C395.787 133.898 409.241 134.455 412.987 130.785C413.407 130.373 413.705 129.908 413.869 129.389L414.861 126.26Z" fill="url(#paint14_linear_1466_9414)" fill-opacity="0.16"/>
<path d="M354.733 107.215C356.36 102.077 371.139 102.176 387.743 107.435C404.347 112.694 416.488 121.123 414.861 126.26M354.733 107.215C354.569 107.733 354.545 108.285 354.651 108.864C354.654 108.88 354.657 108.897 354.661 108.913C355.673 114.068 366.969 121.327 381.85 126.04C396.731 130.754 410.146 131.322 413.942 127.691C413.954 127.679 413.966 127.668 413.978 127.656C414.398 127.244 414.696 126.779 414.861 126.26M354.733 107.215L353.742 110.344C353.577 110.862 353.553 111.414 353.66 111.993C354.61 117.15 365.931 124.44 380.859 129.169C395.787 133.898 409.241 134.455 412.987 130.785C413.407 130.373 413.705 129.908 413.869 129.389L414.861 126.26" stroke="white" stroke-opacity="0.16" stroke-width="0.493432" stroke-linejoin="round"/>
<path d="M413.977 127.656C414.398 127.244 414.696 126.779 414.86 126.261L413.869 129.39C413.705 129.908 413.407 130.373 412.986 130.785C409.24 134.455 395.787 133.898 380.859 129.169C365.93 124.441 354.609 117.15 353.66 111.993C353.553 111.414 353.577 110.862 353.741 110.344L354.732 107.215C354.568 107.733 354.544 108.285 354.651 108.864C354.654 108.881 354.657 108.897 354.66 108.914C355.673 114.068 366.969 121.327 381.85 126.04C396.73 130.754 410.146 131.322 413.941 127.691C413.953 127.68 413.965 127.668 413.977 127.656Z" fill="url(#paint15_linear_1466_9414)" fill-opacity="0.16" stroke="white" stroke-opacity="0.16" stroke-width="0.493432" stroke-linejoin="round"/>
<path d="M387.743 107.435C404.347 112.694 416.488 121.123 414.861 126.26C414.696 126.779 414.398 127.244 413.978 127.656C413.966 127.668 413.954 127.679 413.942 127.691C410.146 131.322 396.731 130.754 381.85 126.04C366.969 121.327 355.673 114.068 354.661 108.913C354.657 108.897 354.654 108.88 354.651 108.864C354.545 108.285 354.569 107.733 354.733 107.215C356.36 102.077 371.139 102.176 387.743 107.435Z" fill="url(#paint16_linear_1466_9414)" fill-opacity="0.16" stroke="white" stroke-opacity="0.16" stroke-width="0.493432" stroke-linejoin="round"/>
</g>
<g filter="url(#filter4_b_1466_9414)">
<path d="M189.37 205.446C185.362 192.791 215.266 172.031 256.164 159.076C297.061 146.122 333.465 145.879 337.473 158.533L339.915 166.241C340.319 167.517 340.378 168.877 340.116 170.302C337.776 183.005 309.892 200.963 273.121 212.61C236.35 224.257 203.212 225.629 193.986 216.59C192.95 215.575 192.216 214.43 191.811 213.153L189.37 205.446Z" fill="url(#paint17_linear_1466_9414)" fill-opacity="0.16"/>
<path d="M337.473 158.533C333.465 145.879 297.061 146.122 256.164 159.076C215.266 172.031 185.362 192.791 189.37 205.446M337.473 158.533C337.878 159.81 337.937 161.17 337.674 162.595C337.667 162.636 337.659 162.677 337.651 162.717C335.156 175.413 307.333 193.293 270.68 204.903C234.026 216.513 200.983 217.913 191.633 208.969C191.603 208.94 191.574 208.911 191.544 208.882C190.509 207.868 189.775 206.722 189.37 205.446M337.473 158.533L339.915 166.241C340.319 167.517 340.378 168.877 340.116 170.302C337.776 183.005 309.892 200.963 273.121 212.61C236.35 224.257 203.212 225.629 193.986 216.59C192.95 215.575 192.216 214.43 191.811 213.153L189.37 205.446" stroke="white" stroke-opacity="0.16" stroke-width="1.21539" stroke-linejoin="round"/>
<path d="M191.544 208.883C190.509 207.869 189.775 206.723 189.37 205.446L191.811 213.153C192.216 214.43 192.95 215.576 193.986 216.59C203.212 225.63 236.35 224.258 273.121 212.611C309.892 200.963 337.776 183.006 340.116 170.303C340.378 168.878 340.319 167.518 339.915 166.241L337.473 158.534C337.878 159.811 337.937 161.17 337.674 162.596C337.667 162.637 337.659 162.677 337.651 162.718C335.157 175.414 307.333 193.293 270.68 204.903C234.026 216.514 200.983 217.914 191.634 208.97C191.604 208.941 191.574 208.912 191.544 208.883Z" fill="url(#paint18_linear_1466_9414)" fill-opacity="0.16" stroke="white" stroke-opacity="0.16" stroke-width="1.21539" stroke-linejoin="round"/>
<path d="M256.164 159.076C215.266 172.031 185.362 192.791 189.37 205.446C189.775 206.722 190.509 207.868 191.544 208.882C191.574 208.911 191.603 208.94 191.633 208.969C200.983 217.913 234.026 216.513 270.68 204.903C307.333 193.293 335.156 175.413 337.651 162.717C337.659 162.677 337.667 162.636 337.674 162.595C337.937 161.17 337.878 159.81 337.473 158.533C333.465 145.879 297.061 146.122 256.164 159.076Z" fill="url(#paint19_linear_1466_9414)" fill-opacity="0.16" stroke="white" stroke-opacity="0.16" stroke-width="1.21539" stroke-linejoin="round"/>
</g>
<defs>
<filter id="filter0_f_1466_9414" x="5" y="17" width="653" height="653" filterUnits="userSpaceOnUse" color-interpolation-filters="sRGB">
<feFlood flood-opacity="0" result="BackgroundImageFix"/>
<feBlend mode="normal" in="SourceGraphic" in2="BackgroundImageFix" result="shape"/>
<feGaussianBlur stdDeviation="90" result="effect1_foregroundBlur_1466_9414"/>
</filter>
<filter id="filter1_b_1466_9414" x="137.419" y="173.899" width="387.672" height="387.672" filterUnits="userSpaceOnUse" color-interpolation-filters="sRGB">
<feFlood flood-opacity="0" result="BackgroundImageFix"/>
<feGaussianBlur in="BackgroundImageFix" stdDeviation="43.4238"/>
<feComposite in2="SourceAlpha" operator="in" result="effect1_backgroundBlur_1466_9414"/>
<feBlend mode="normal" in="SourceGraphic" in2="effect1_backgroundBlur_1466_9414" result="shape"/>
</filter>
<filter id="filter2_bf_1466_9414" x="335.597" y="117.635" width="235.503" height="212.577" filterUnits="userSpaceOnUse" color-interpolation-filters="sRGB">
<feFlood flood-opacity="0" result="BackgroundImageFix"/>
<feGaussianBlur in="BackgroundImageFix" stdDeviation="39.6242"/>
<feComposite in2="SourceAlpha" operator="in" result="effect1_backgroundBlur_1466_9414"/>
<feBlend mode="normal" in="SourceGraphic" in2="effect1_backgroundBlur_1466_9414" result="shape"/>
<feGaussianBlur stdDeviation="0.325679" result="effect2_foregroundBlur_1466_9414"/>
</filter>
<filter id="filter3_f_1466_9414" x="349.493" y="98.2901" width="67.2451" height="48.0009" filterUnits="userSpaceOnUse" color-interpolation-filters="sRGB">
<feFlood flood-opacity="0" result="BackgroundImageFix"/>
<feBlend mode="normal" in="SourceGraphic" in2="BackgroundImageFix" result="shape"/>
<feGaussianBlur stdDeviation="0.651357" result="effect1_foregroundBlur_1466_9414"/>
</filter>
<filter id="filter4_b_1466_9414" x="183.615" y="135.417" width="167.901" height="120.501" filterUnits="userSpaceOnUse" color-interpolation-filters="sRGB">
<feFlood flood-opacity="0" result="BackgroundImageFix"/>
<feGaussianBlur in="BackgroundImageFix" stdDeviation="2.17119"/>
<feComposite in2="SourceAlpha" operator="in" result="effect1_backgroundBlur_1466_9414"/>
<feBlend mode="normal" in="SourceGraphic" in2="effect1_backgroundBlur_1466_9414" result="shape"/>
</filter>
<linearGradient id="paint0_linear_1466_9414" x1="308.729" y1="131" x2="308.729" y2="386.5" gradientUnits="userSpaceOnUse">
<stop stop-color="#030D0C" stop-opacity="0"/>
<stop offset="1" stop-color="white"/>
</linearGradient>
<radialGradient id="paint1_radial_1466_9414" cx="0" cy="0" r="1" gradientUnits="userSpaceOnUse" gradientTransform="translate(331.5 346.35) rotate(90) scale(343.448)">
<stop stop-color="#51E0CF"/>
<stop offset="1" stop-color="#51E0CF" stop-opacity="0"/>
</radialGradient>
<linearGradient id="paint2_linear_1466_9414" x1="331.255" y1="261.347" x2="331.255" y2="474.123" gradientUnits="userSpaceOnUse">
<stop stop-color="white"/>
<stop offset="1" stop-color="white" stop-opacity="0"/>
</linearGradient>
<linearGradient id="paint3_linear_1466_9414" x1="331.255" y1="261.347" x2="331.255" y2="474.123" gradientUnits="userSpaceOnUse">
<stop stop-color="white"/>
<stop offset="1" stop-color="white" stop-opacity="0"/>
</linearGradient>
<linearGradient id="paint4_linear_1466_9414" x1="331.255" y1="261.347" x2="331.255" y2="474.123" gradientUnits="userSpaceOnUse">
<stop stop-color="white"/>
<stop offset="1" stop-color="white" stop-opacity="0"/>
</linearGradient>
<linearGradient id="paint5_linear_1466_9414" x1="331.255" y1="261.347" x2="331.255" y2="474.123" gradientUnits="userSpaceOnUse">
<stop stop-color="white"/>
<stop offset="1" stop-color="white" stop-opacity="0"/>
</linearGradient>
<linearGradient id="paint6_linear_1466_9414" x1="331.255" y1="261.347" x2="331.255" y2="474.123" gradientUnits="userSpaceOnUse">
<stop stop-color="white"/>
<stop offset="1" stop-color="white" stop-opacity="0"/>
</linearGradient>
<linearGradient id="paint7_linear_1466_9414" x1="443.614" y1="261.347" x2="224.866" y2="308.57" gradientUnits="userSpaceOnUse">
<stop stop-color="white"/>
<stop offset="1" stop-color="white" stop-opacity="0"/>
</linearGradient>
<linearGradient id="paint8_linear_1466_9414" x1="443.614" y1="261.347" x2="224.866" y2="308.57" gradientUnits="userSpaceOnUse">
<stop stop-color="white"/>
<stop offset="1" stop-color="white" stop-opacity="0"/>
</linearGradient>
<linearGradient id="paint9_linear_1466_9414" x1="443.614" y1="261.347" x2="224.866" y2="308.57" gradientUnits="userSpaceOnUse">
<stop stop-color="white"/>
<stop offset="1" stop-color="white" stop-opacity="0"/>
</linearGradient>
<linearGradient id="paint10_linear_1466_9414" x1="443.614" y1="261.347" x2="224.866" y2="308.57" gradientUnits="userSpaceOnUse">
<stop stop-color="white"/>
<stop offset="1" stop-color="white" stop-opacity="0"/>
</linearGradient>
<linearGradient id="paint11_linear_1466_9414" x1="421.037" y1="194.245" x2="467.099" y2="246.169" gradientUnits="userSpaceOnUse">
<stop stop-color="white"/>
<stop offset="1" stop-color="white" stop-opacity="0"/>
</linearGradient>
<linearGradient id="paint12_linear_1466_9414" x1="417.526" y1="205.327" x2="442.204" y2="255.507" gradientUnits="userSpaceOnUse">
<stop stop-color="white"/>
<stop offset="1" stop-color="white" stop-opacity="0"/>
</linearGradient>
<linearGradient id="paint13_linear_1466_9414" x1="421.037" y1="194.245" x2="461.42" y2="246.833" gradientUnits="userSpaceOnUse">
<stop stop-color="white"/>
<stop offset="1" stop-color="white" stop-opacity="0"/>
</linearGradient>
<linearGradient id="paint14_linear_1466_9414" x1="355.992" y1="97.3779" x2="394.657" y2="140.963" gradientUnits="userSpaceOnUse">
<stop stop-color="white"/>
<stop offset="1" stop-color="white" stop-opacity="0"/>
</linearGradient>
<linearGradient id="paint15_linear_1466_9414" x1="353.045" y1="106.681" x2="373.759" y2="148.802" gradientUnits="userSpaceOnUse">
<stop stop-color="white"/>
<stop offset="1" stop-color="white" stop-opacity="0"/>
</linearGradient>
<linearGradient id="paint16_linear_1466_9414" x1="355.992" y1="97.3779" x2="389.89" y2="141.521" gradientUnits="userSpaceOnUse">
<stop stop-color="white"/>
<stop offset="1" stop-color="white" stop-opacity="0"/>
</linearGradient>
<linearGradient id="paint17_linear_1466_9414" x1="334.371" y1="134.304" x2="239.134" y2="241.66" gradientUnits="userSpaceOnUse">
<stop stop-color="white"/>
<stop offset="1" stop-color="white" stop-opacity="0"/>
</linearGradient>
<linearGradient id="paint18_linear_1466_9414" x1="341.629" y1="157.218" x2="290.607" y2="260.969" gradientUnits="userSpaceOnUse">
<stop stop-color="white"/>
<stop offset="1" stop-color="white" stop-opacity="0"/>
</linearGradient>
<linearGradient id="paint19_linear_1466_9414" x1="334.371" y1="134.304" x2="250.876" y2="243.034" gradientUnits="userSpaceOnUse">
<stop stop-color="white"/>
<stop offset="1" stop-color="white" stop-opacity="0"/>
</linearGradient>
</defs>
</svg>
