<svg width="2400" height="890" viewBox="0 0 2400 890" fill="none" xmlns="http://www.w3.org/2000/svg">
<g clip-path="url(#clip0_1466_9384)">
<g style="mix-blend-mode:soft-light">
<path d="M407.143 163.087V176.31M407.143 176.31V189.534M407.143 176.31H393.933M407.143 176.31H420.354M407.143 515.708V528.932M407.143 528.932V542.155M407.143 528.932H393.933M407.143 528.932H420.354M407.143 868.33V881.553M407.143 881.553V894.776M407.143 881.553H393.933M407.143 881.553H420.354M759.43 163.087V176.31M759.43 176.31V189.534M759.43 176.31H746.22M759.43 176.31H772.641M759.43 515.708V528.932M759.43 528.932V542.155M759.43 528.932H746.22M759.43 528.932H772.641M759.43 868.33V881.553M759.43 881.553V894.776M759.43 881.553H746.22M759.43 881.553H772.641M1111.72 163.087V176.31M1111.72 176.31V189.534M1111.72 176.31H1098.51M1111.72 176.31H1124.93M1111.72 515.708V528.932M1111.72 528.932V542.155M1111.72 528.932H1098.51M1111.72 528.932H1124.93M1111.72 868.33V881.553M1111.72 881.553V894.776M1111.72 881.553H1098.51M1111.72 881.553H1124.93M1464 163.087V176.31M1464 176.31V189.534M1464 176.31H1450.79M1464 176.31H1477.22M1464 515.708V528.932M1464 528.932V542.155M1464 528.932H1450.79M1464 528.932H1477.22M1464 868.33V881.553M1464 881.553V894.776M1464 881.553H1450.79M1464 881.553H1477.22M1816.29 163.087V176.31M1816.29 176.31V189.534M1816.29 176.31H1803.08M1816.29 176.31H1829.5M1816.29 515.708V528.932M1816.29 528.932V542.155M1816.29 528.932H1803.08M1816.29 528.932H1829.5M1816.29 868.33V881.553M1816.29 881.553V894.776M1816.29 881.553H1803.08M1816.29 881.553H1829.5M2168.58 163.087V176.31M2168.58 176.31V189.534M2168.58 176.31H2155.37M2168.58 176.31H2181.79M2168.58 515.708V528.932M2168.58 528.932V542.155M2168.58 528.932H2155.37M2168.58 528.932H2181.79M2168.58 868.33V881.553M2168.58 881.553V894.776M2168.58 881.553H2155.37M2168.58 881.553H2181.79M407.143 -13.2236V-0.000328409M407.143 -0.000328409V13.223M407.143 -0.000328409H393.933M407.143 -0.000328409H420.354M407.143 339.398V352.621M407.143 352.621V365.844M407.143 352.621H393.933M407.143 352.621H420.354M407.143 692.019V705.242M407.143 705.242V718.466M407.143 705.242H393.933M407.143 705.242H420.354M759.43 -13.2236V-0.000328409M759.43 -0.000328409V13.223M759.43 -0.000328409H746.22M759.43 -0.000328409H772.641M759.43 339.398V352.621M759.43 352.621V365.844M759.43 352.621H746.22M759.43 352.621H772.641M759.43 692.019V705.242M759.43 705.242V718.466M759.43 705.242H746.22M759.43 705.242H772.641M1111.72 -13.2236V-0.000328409M1111.72 -0.000328409V13.223M1111.72 -0.000328409H1098.51M1111.72 -0.000328409H1124.93M1111.72 339.398V352.621M1111.72 352.621V365.844M1111.72 352.621H1098.51M1111.72 352.621H1124.93M1111.72 692.019V705.242M1111.72 705.242V718.466M1111.72 705.242H1098.51M1111.72 705.242H1124.93M1464 -13.2236V-0.000328409M1464 -0.000328409V13.223M1464 -0.000328409H1450.79M1464 -0.000328409H1477.22M1464 339.398V352.621M1464 352.621V365.844M1464 352.621H1450.79M1464 352.621H1477.22M1464 692.019V705.242M1464 705.242V718.466M1464 705.242H1450.79M1464 705.242H1477.22M1816.29 -13.2236V-0.000328409M1816.29 -0.000328409V13.223M1816.29 -0.000328409H1803.08M1816.29 -0.000328409H1829.5M1816.29 339.398V352.621M1816.29 352.621V365.844M1816.29 352.621H1803.08M1816.29 352.621H1829.5M1816.29 692.019V705.242M1816.29 705.242V718.466M1816.29 705.242H1803.08M1816.29 705.242H1829.5M2168.58 -13.2236V-0.000328409M2168.58 -0.000328409V13.223M2168.58 -0.000328409H2155.37M2168.58 -0.000328409H2181.79M2168.58 339.398V352.621M2168.58 352.621V365.844M2168.58 352.621H2155.37M2168.58 352.621H2181.79M2168.58 692.019V705.242M2168.58 705.242V718.466M2168.58 705.242H2155.37M2168.58 705.242H2181.79M231 163.087V176.31M231 176.31V189.534M231 176.31H217.789M231 176.31H244.211M231 515.708V528.932M231 528.932V542.155M231 528.932H217.789M231 528.932H244.211M231 868.33V881.553M231 881.553V894.776M231 881.553H217.789M231 881.553H244.211M583.287 163.087V176.31M583.287 176.31V189.534M583.287 176.31H570.076M583.287 176.31H596.498M583.287 515.708V528.932M583.287 528.932V542.155M583.287 528.932H570.076M583.287 528.932H596.498M583.287 868.33V881.553M583.287 881.553V894.776M583.287 881.553H570.076M583.287 881.553H596.498M935.574 163.087V176.31M935.574 176.31V189.534M935.574 176.31H922.363M935.574 176.31H948.785M935.574 515.708V528.932M935.574 528.932V542.155M935.574 528.932H922.363M935.574 528.932H948.785M935.574 868.33V881.553M935.574 881.553V894.776M935.574 881.553H922.363M935.574 881.553H948.785M1287.86 163.087V176.31M1287.86 176.31V189.534M1287.86 176.31H1274.65M1287.86 176.31H1301.07M1287.86 515.708V528.932M1287.86 528.932V542.155M1287.86 528.932H1274.65M1287.86 528.932H1301.07M1287.86 868.33V881.553M1287.86 881.553V894.776M1287.86 881.553H1274.65M1287.86 881.553H1301.07M1640.15 163.087V176.31M1640.15 176.31V189.534M1640.15 176.31H1626.94M1640.15 176.31H1653.36M1640.15 515.708V528.932M1640.15 528.932V542.155M1640.15 528.932H1626.94M1640.15 528.932H1653.36M1640.15 868.33V881.553M1640.15 881.553V894.776M1640.15 881.553H1626.94M1640.15 881.553H1653.36M1992.43 163.087V176.31M1992.43 176.31V189.534M1992.43 176.31H1979.22M1992.43 176.31H2005.65M1992.43 515.708V528.932M1992.43 528.932V542.155M1992.43 528.932H1979.22M1992.43 528.932H2005.65M1992.43 868.33V881.553M1992.43 881.553V894.776M1992.43 881.553H1979.22M1992.43 881.553H2005.65M231 -13.2236V-0.000263381M231 -0.000263381V13.223M231 -0.000263381H217.789M231 -0.000263381H244.211M231 339.398V352.621M231 352.621V365.844M231 352.621H217.789M231 352.621H244.211M231 692.019V705.242M231 705.242V718.466M231 705.242H217.789M231 705.242H244.211M583.287 -13.2236V-0.000328409M583.287 -0.000328409V13.223M583.287 -0.000328409H570.076M583.287 -0.000328409H596.498M583.287 339.398V352.621M583.287 352.621V365.844M583.287 352.621H570.076M583.287 352.621H596.498M583.287 692.019V705.242M583.287 705.242V718.466M583.287 705.242H570.076M583.287 705.242H596.498M935.574 -13.2236V-0.000328409M935.574 -0.000328409V13.223M935.574 -0.000328409H922.363M935.574 -0.000328409H948.785M935.574 339.398V352.621M935.574 352.621V365.844M935.574 352.621H922.363M935.574 352.621H948.785M935.574 692.019V705.242M935.574 705.242V718.466M935.574 705.242H922.363M935.574 705.242H948.785M1287.86 -13.2236V-0.000328409M1287.86 -0.000328409V13.223M1287.86 -0.000328409H1274.65M1287.86 -0.000328409H1301.07M1287.86 339.398V352.621M1287.86 352.621V365.844M1287.86 352.621H1274.65M1287.86 352.621H1301.07M1287.86 692.019V705.242M1287.86 705.242V718.466M1287.86 705.242H1274.65M1287.86 705.242H1301.07M1640.15 -13.2236V-0.000328409M1640.15 -0.000328409V13.223M1640.15 -0.000328409H1626.94M1640.15 -0.000328409H1653.36M1640.15 339.398V352.621M1640.15 352.621V365.844M1640.15 352.621H1626.94M1640.15 352.621H1653.36M1640.15 692.019V705.242M1640.15 705.242V718.466M1640.15 705.242H1626.94M1640.15 705.242H1653.36M1992.43 -13.2236V-0.000328409M1992.43 -0.000328409V13.223M1992.43 -0.000328409H1979.22M1992.43 -0.000328409H2005.65M1992.43 339.398V352.621M1992.43 352.621V365.844M1992.43 352.621H1979.22M1992.43 352.621H2005.65M1992.43 692.019V705.242M1992.43 705.242V718.466M1992.43 705.242H1979.22M1992.43 705.242H2005.65" stroke="url(#paint0_radial_1466_9384)" stroke-width="0.8"/>
</g>
<g style="mix-blend-mode:soft-light" opacity="0.48">
<path d="M275.036 0H231V44.0777M275.036 0V44.0777M275.036 0H319.072M275.036 44.0777H231M275.036 44.0777V88.1554M275.036 44.0777H319.072M231 44.0777V88.1554M275.036 88.1554H231M275.036 88.1554V132.233M275.036 88.1554H319.072M231 88.1554V132.233M275.036 132.233H231M275.036 132.233V176.311M275.036 132.233H319.072M231 132.233V176.311M275.036 176.311H231M275.036 176.311V220.388M275.036 176.311H319.072M231 176.311V220.388M275.036 220.388H231M275.036 220.388V264.466M275.036 220.388H319.072M231 220.388V264.466M275.036 264.466H231M275.036 264.466V308.544M275.036 264.466H319.072M231 264.466V308.544M275.036 308.544H231M275.036 308.544V352.621M275.036 308.544H319.072M231 308.544V352.621M275.036 352.621H231M275.036 352.621V396.699M275.036 352.621H319.072M231 352.621V396.699M275.036 396.699H231M275.036 396.699V440.777M275.036 396.699H319.072M231 396.699V440.777M275.036 440.777H231M275.036 440.777V484.854M275.036 440.777H319.072M231 440.777V484.854M275.036 484.854H231M275.036 484.854V528.932M275.036 484.854H319.072M231 484.854V528.932M275.036 528.932H231M275.036 528.932V573.01M275.036 528.932H319.072M231 528.932V573.01M275.036 573.01H231M275.036 573.01V617.087M275.036 573.01H319.072M231 573.01V617.087M275.036 617.087H231M275.036 617.087V661.165M275.036 617.087H319.072M231 617.087V661.165M275.036 661.165H231M275.036 661.165V705.243M275.036 661.165H319.072M231 661.165V705.243M275.036 705.243H231M275.036 705.243V749.321M275.036 705.243H319.072M231 705.243V749.321M275.036 749.321H231M275.036 749.321V793.398M275.036 749.321H319.072M231 749.321V793.398M275.036 793.398H231M275.036 793.398V837.476M275.036 793.398H319.072M231 793.398V837.476M275.036 837.476H231M275.036 837.476V881.554M275.036 837.476H319.072M231 837.476V881.554H275.036M275.036 881.554H319.072M319.072 0V44.0777M319.072 0H363.108M319.072 44.0777V88.1554M319.072 44.0777H363.108M319.072 88.1554V132.233M319.072 88.1554H363.108M319.072 132.233V176.311M319.072 132.233H363.108M319.072 176.311V220.388M319.072 176.311H363.108M319.072 220.388V264.466M319.072 220.388H363.108M319.072 264.466V308.544M319.072 264.466H363.108M319.072 308.544V352.621M319.072 308.544H363.108M319.072 352.621V396.699M319.072 352.621H363.108M319.072 396.699V440.777M319.072 396.699H363.108M319.072 440.777V484.854M319.072 440.777H363.108M319.072 484.854V528.932M319.072 484.854H363.108M319.072 528.932V573.01M319.072 528.932H363.108M319.072 573.01V617.087M319.072 573.01H363.108M319.072 617.087V661.165M319.072 617.087H363.108M319.072 661.165V705.243M319.072 661.165H363.108M319.072 705.243V749.321M319.072 705.243H363.108M319.072 749.321V793.398M319.072 749.321H363.108M319.072 793.398V837.476M319.072 793.398H363.108M319.072 837.476V881.554M319.072 837.476H363.108M319.072 881.554H363.108M363.108 0V44.0777M363.108 0H407.143M363.108 44.0777V88.1554M363.108 44.0777H407.143M363.108 88.1554V132.233M363.108 88.1554H407.143M363.108 132.233V176.311M363.108 132.233H407.143M363.108 176.311V220.388M363.108 176.311H407.143M363.108 220.388V264.466M363.108 220.388H407.143M363.108 264.466V308.544M363.108 264.466H407.143M363.108 308.544V352.621M363.108 308.544H407.143M363.108 352.621V396.699M363.108 352.621H407.143M363.108 396.699V440.777M363.108 396.699H407.143M363.108 440.777V484.854M363.108 440.777H407.143M363.108 484.854V528.932M363.108 484.854H407.143M363.108 528.932V573.01M363.108 528.932H407.143M363.108 573.01V617.087M363.108 573.01H407.143M363.108 617.087V661.165M363.108 617.087H407.143M363.108 661.165V705.243M363.108 661.165H407.143M363.108 705.243V749.321M363.108 705.243H407.143M363.108 749.321V793.398M363.108 749.321H407.143M363.108 793.398V837.476M363.108 793.398H407.143M363.108 837.476V881.554M363.108 837.476H407.143M363.108 881.554H407.143M407.143 0V44.0777M407.143 0H451.179M407.143 44.0777V88.1554M407.143 44.0777H451.179M407.143 88.1554V132.233M407.143 88.1554H451.179M407.143 132.233V176.311M407.143 132.233H451.179M407.143 176.311V220.388M407.143 176.311H451.179M407.143 220.388V264.466M407.143 220.388H451.179M407.143 264.466V308.544M407.143 264.466H451.179M407.143 308.544V352.621M407.143 308.544H451.179M407.143 352.621V396.699M407.143 352.621H451.179M407.143 396.699V440.777M407.143 396.699H451.179M407.143 440.777V484.854M407.143 440.777H451.179M407.143 484.854V528.932M407.143 484.854H451.179M407.143 528.932V573.01M407.143 528.932H451.179M407.143 573.01V617.087M407.143 573.01H451.179M407.143 617.087V661.165M407.143 617.087H451.179M407.143 661.165V705.243M407.143 661.165H451.179M407.143 705.243V749.321M407.143 705.243H451.179M407.143 749.321V793.398M407.143 749.321H451.179M407.143 793.398V837.476M407.143 793.398H451.179M407.143 837.476V881.554M407.143 837.476H451.179M407.143 881.554H451.179M451.179 0V44.0777M451.179 0H495.215M451.179 44.0777V88.1554M451.179 44.0777H495.215M451.179 88.1554V132.233M451.179 88.1554H495.215M451.179 132.233V176.311M451.179 132.233H495.215M451.179 176.311V220.388M451.179 176.311H495.215M451.179 220.388V264.466M451.179 220.388H495.215M451.179 264.466V308.544M451.179 264.466H495.215M451.179 308.544V352.621M451.179 308.544H495.215M451.179 352.621V396.699M451.179 352.621H495.215M451.179 396.699V440.777M451.179 396.699H495.215M451.179 440.777V484.854M451.179 440.777H495.215M451.179 484.854V528.932M451.179 484.854H495.215M451.179 528.932V573.01M451.179 528.932H495.215M451.179 573.01V617.087M451.179 573.01H495.215M451.179 617.087V661.165M451.179 617.087H495.215M451.179 661.165V705.243M451.179 661.165H495.215M451.179 705.243V749.321M451.179 705.243H495.215M451.179 749.321V793.398M451.179 749.321H495.215M451.179 793.398V837.476M451.179 793.398H495.215M451.179 837.476V881.554M451.179 837.476H495.215M451.179 881.554H495.215M495.215 0V44.0777M495.215 0H539.251M495.215 44.0777V88.1554M495.215 44.0777H539.251M495.215 88.1554V132.233M495.215 88.1554H539.251M495.215 132.233V176.311M495.215 132.233H539.251M495.215 176.311V220.388M495.215 176.311H539.251M495.215 220.388V264.466M495.215 220.388H539.251M495.215 264.466V308.544M495.215 264.466H539.251M495.215 308.544V352.621M495.215 308.544H539.251M495.215 352.621V396.699M495.215 352.621H539.251M495.215 396.699V440.777M495.215 396.699H539.251M495.215 440.777V484.854M495.215 440.777H539.251M495.215 484.854V528.932M495.215 484.854H539.251M495.215 528.932V573.01M495.215 528.932H539.251M495.215 573.01V617.087M495.215 573.01H539.251M495.215 617.087V661.165M495.215 617.087H539.251M495.215 661.165V705.243M495.215 661.165H539.251M495.215 705.243V749.321M495.215 705.243H539.251M495.215 749.321V793.398M495.215 749.321H539.251M495.215 793.398V837.476M495.215 793.398H539.251M495.215 837.476V881.554M495.215 837.476H539.251M495.215 881.554H539.251M539.251 0V44.0777M539.251 0H583.287M539.251 44.0777V88.1554M539.251 44.0777H583.287M539.251 88.1554V132.233M539.251 88.1554H583.287M539.251 132.233V176.311M539.251 132.233H583.287M539.251 176.311V220.388M539.251 176.311H583.287M539.251 220.388V264.466M539.251 220.388H583.287M539.251 264.466V308.544M539.251 264.466H583.287M539.251 308.544V352.621M539.251 308.544H583.287M539.251 352.621V396.699M539.251 352.621H583.287M539.251 396.699V440.777M539.251 396.699H583.287M539.251 440.777V484.854M539.251 440.777H583.287M539.251 484.854V528.932M539.251 484.854H583.287M539.251 528.932V573.01M539.251 528.932H583.287M539.251 573.01V617.087M539.251 573.01H583.287M539.251 617.087V661.165M539.251 617.087H583.287M539.251 661.165V705.243M539.251 661.165H583.287M539.251 705.243V749.321M539.251 705.243H583.287M539.251 749.321V793.398M539.251 749.321H583.287M539.251 793.398V837.476M539.251 793.398H583.287M539.251 837.476V881.554M539.251 837.476H583.287M539.251 881.554H583.287M583.287 0V44.0777M583.287 0H627.323M583.287 44.0777V88.1554M583.287 44.0777H627.323M583.287 88.1554V132.233M583.287 88.1554H627.323M583.287 132.233V176.311M583.287 132.233H627.323M583.287 176.311V220.388M583.287 176.311H627.323M583.287 220.388V264.466M583.287 220.388H627.323M583.287 264.466V308.544M583.287 264.466H627.323M583.287 308.544V352.621M583.287 308.544H627.323M583.287 352.621V396.699M583.287 352.621H627.323M583.287 396.699V440.777M583.287 396.699H627.323M583.287 440.777V484.854M583.287 440.777H627.323M583.287 484.854V528.932M583.287 484.854H627.323M583.287 528.932V573.01M583.287 528.932H627.323M583.287 573.01V617.087M583.287 573.01H627.323M583.287 617.087V661.165M583.287 617.087H627.323M583.287 661.165V705.243M583.287 661.165H627.323M583.287 705.243V749.321M583.287 705.243H627.323M583.287 749.321V793.398M583.287 749.321H627.323M583.287 793.398V837.476M583.287 793.398H627.323M583.287 837.476V881.554M583.287 837.476H627.323M583.287 881.554H627.323M627.323 0V44.0777M627.323 0H671.359M627.323 44.0777V88.1554M627.323 44.0777H671.359M627.323 88.1554V132.233M627.323 88.1554H671.359M627.323 132.233V176.311M627.323 132.233H671.359M627.323 176.311V220.388M627.323 176.311H671.359M627.323 220.388V264.466M627.323 220.388H671.359M627.323 264.466V308.544M627.323 264.466H671.359M627.323 308.544V352.621M627.323 308.544H671.359M627.323 352.621V396.699M627.323 352.621H671.359M627.323 396.699V440.777M627.323 396.699H671.359M627.323 440.777V484.854M627.323 440.777H671.359M627.323 484.854V528.932M627.323 484.854H671.359M627.323 528.932V573.01M627.323 528.932H671.359M627.323 573.01V617.087M627.323 573.01H671.359M627.323 617.087V661.165M627.323 617.087H671.359M627.323 661.165V705.243M627.323 661.165H671.359M627.323 705.243V749.321M627.323 705.243H671.359M627.323 749.321V793.398M627.323 749.321H671.359M627.323 793.398V837.476M627.323 793.398H671.359M627.323 837.476V881.554M627.323 837.476H671.359M627.323 881.554H671.359M671.359 0V44.0777M671.359 0H715.395M671.359 44.0777V88.1554M671.359 44.0777H715.395M671.359 88.1554V132.233M671.359 88.1554H715.395M671.359 132.233V176.311M671.359 132.233H715.395M671.359 176.311V220.388M671.359 176.311H715.395M671.359 220.388V264.466M671.359 220.388H715.395M671.359 264.466V308.544M671.359 264.466H715.395M671.359 308.544V352.621M671.359 308.544H715.395M671.359 352.621V396.699M671.359 352.621H715.395M671.359 396.699V440.777M671.359 396.699H715.395M671.359 440.777V484.854M671.359 440.777H715.395M671.359 484.854V528.932M671.359 484.854H715.395M671.359 528.932V573.01M671.359 528.932H715.395M671.359 573.01V617.087M671.359 573.01H715.395M671.359 617.087V661.165M671.359 617.087H715.395M671.359 661.165V705.243M671.359 661.165H715.395M671.359 705.243V749.321M671.359 705.243H715.395M671.359 749.321V793.398M671.359 749.321H715.395M671.359 793.398V837.476M671.359 793.398H715.395M671.359 837.476V881.554M671.359 837.476H715.395M671.359 881.554H715.395M715.395 0V44.0777M715.395 0H759.43M715.395 44.0777V88.1554M715.395 44.0777H759.43M715.395 88.1554V132.233M715.395 88.1554H759.43M715.395 132.233V176.311M715.395 132.233H759.43M715.395 176.311V220.388M715.395 176.311H759.43M715.395 220.388V264.466M715.395 220.388H759.43M715.395 264.466V308.544M715.395 264.466H759.43M715.395 308.544V352.621M715.395 308.544H759.43M715.395 352.621V396.699M715.395 352.621H759.43M715.395 396.699V440.777M715.395 396.699H759.43M715.395 440.777V484.854M715.395 440.777H759.43M715.395 484.854V528.932M715.395 484.854H759.43M715.395 528.932V573.01M715.395 528.932H759.43M715.395 573.01V617.087M715.395 573.01H759.43M715.395 617.087V661.165M715.395 617.087H759.43M715.395 661.165V705.243M715.395 661.165H759.43M715.395 705.243V749.321M715.395 705.243H759.43M715.395 749.321V793.398M715.395 749.321H759.43M715.395 793.398V837.476M715.395 793.398H759.43M715.395 837.476V881.554M715.395 837.476H759.43M715.395 881.554H759.43M759.43 0V44.0777M759.43 0H803.466M759.43 44.0777V88.1554M759.43 44.0777H803.466M759.43 88.1554V132.233M759.43 88.1554H803.466M759.43 132.233V176.311M759.43 132.233H803.466M759.43 176.311V220.388M759.43 176.311H803.466M759.43 220.388V264.466M759.43 220.388H803.466M759.43 264.466V308.544M759.43 264.466H803.466M759.43 308.544V352.621M759.43 308.544H803.466M759.43 352.621V396.699M759.43 352.621H803.466M759.43 396.699V440.777M759.43 396.699H803.466M759.43 440.777V484.854M759.43 440.777H803.466M759.43 484.854V528.932M759.43 484.854H803.466M759.43 528.932V573.01M759.43 528.932H803.466M759.43 573.01V617.087M759.43 573.01H803.466M759.43 617.087V661.165M759.43 617.087H803.466M759.43 661.165V705.243M759.43 661.165H803.466M759.43 705.243V749.321M759.43 705.243H803.466M759.43 749.321V793.398M759.43 749.321H803.466M759.43 793.398V837.476M759.43 793.398H803.466M759.43 837.476V881.554M759.43 837.476H803.466M759.43 881.554H803.466M803.466 0V44.0777M803.466 0H847.502M803.466 44.0777V88.1554M803.466 44.0777H847.502M803.466 88.1554V132.233M803.466 88.1554H847.502M803.466 132.233V176.311M803.466 132.233H847.502M803.466 176.311V220.388M803.466 176.311H847.502M803.466 220.388V264.466M803.466 220.388H847.502M803.466 264.466V308.544M803.466 264.466H847.502M803.466 308.544V352.621M803.466 308.544H847.502M803.466 352.621V396.699M803.466 352.621H847.502M803.466 396.699V440.777M803.466 396.699H847.502M803.466 440.777V484.854M803.466 440.777H847.502M803.466 484.854V528.932M803.466 484.854H847.502M803.466 528.932V573.01M803.466 528.932H847.502M803.466 573.01V617.087M803.466 573.01H847.502M803.466 617.087V661.165M803.466 617.087H847.502M803.466 661.165V705.243M803.466 661.165H847.502M803.466 705.243V749.321M803.466 705.243H847.502M803.466 749.321V793.398M803.466 749.321H847.502M803.466 793.398V837.476M803.466 793.398H847.502M803.466 837.476V881.554M803.466 837.476H847.502M803.466 881.554H847.502M847.502 0V44.0777M847.502 0H891.538M847.502 44.0777V88.1554M847.502 44.0777H891.538M847.502 88.1554V132.233M847.502 88.1554H891.538M847.502 132.233V176.311M847.502 132.233H891.538M847.502 176.311V220.388M847.502 176.311H891.538M847.502 220.388V264.466M847.502 220.388H891.538M847.502 264.466V308.544M847.502 264.466H891.538M847.502 308.544V352.621M847.502 308.544H891.538M847.502 352.621V396.699M847.502 352.621H891.538M847.502 396.699V440.777M847.502 396.699H891.538M847.502 440.777V484.854M847.502 440.777H891.538M847.502 484.854V528.932M847.502 484.854H891.538M847.502 528.932V573.01M847.502 528.932H891.538M847.502 573.01V617.087M847.502 573.01H891.538M847.502 617.087V661.165M847.502 617.087H891.538M847.502 661.165V705.243M847.502 661.165H891.538M847.502 705.243V749.321M847.502 705.243H891.538M847.502 749.321V793.398M847.502 749.321H891.538M847.502 793.398V837.476M847.502 793.398H891.538M847.502 837.476V881.554M847.502 837.476H891.538M847.502 881.554H891.538M891.538 0V44.0777M891.538 0H935.574M891.538 44.0777V88.1554M891.538 44.0777H935.574M891.538 88.1554V132.233M891.538 88.1554H935.574M891.538 132.233V176.311M891.538 132.233H935.574M891.538 176.311V220.388M891.538 176.311H935.574M891.538 220.388V264.466M891.538 220.388H935.574M891.538 264.466V308.544M891.538 264.466H935.574M891.538 308.544V352.621M891.538 308.544H935.574M891.538 352.621V396.699M891.538 352.621H935.574M891.538 396.699V440.777M891.538 396.699H935.574M891.538 440.777V484.854M891.538 440.777H935.574M891.538 484.854V528.932M891.538 484.854H935.574M891.538 528.932V573.01M891.538 528.932H935.574M891.538 573.01V617.087M891.538 573.01H935.574M891.538 617.087V661.165M891.538 617.087H935.574M891.538 661.165V705.243M891.538 661.165H935.574M891.538 705.243V749.321M891.538 705.243H935.574M891.538 749.321V793.398M891.538 749.321H935.574M891.538 793.398V837.476M891.538 793.398H935.574M891.538 837.476V881.554M891.538 837.476H935.574M891.538 881.554H935.574M935.574 0V44.0777M935.574 0H979.61M935.574 44.0777V88.1554M935.574 44.0777H979.61M935.574 88.1554V132.233M935.574 88.1554H979.61M935.574 132.233V176.311M935.574 132.233H979.61M935.574 176.311V220.388M935.574 176.311H979.61M935.574 220.388V264.466M935.574 220.388H979.61M935.574 264.466V308.544M935.574 264.466H979.61M935.574 308.544V352.621M935.574 308.544H979.61M935.574 352.621V396.699M935.574 352.621H979.61M935.574 396.699V440.777M935.574 396.699H979.61M935.574 440.777V484.854M935.574 440.777H979.61M935.574 484.854V528.932M935.574 484.854H979.61M935.574 528.932V573.01M935.574 528.932H979.61M935.574 573.01V617.087M935.574 573.01H979.61M935.574 617.087V661.165M935.574 617.087H979.61M935.574 661.165V705.243M935.574 661.165H979.61M935.574 705.243V749.321M935.574 705.243H979.61M935.574 749.321V793.398M935.574 749.321H979.61M935.574 793.398V837.476M935.574 793.398H979.61M935.574 837.476V881.554M935.574 837.476H979.61M935.574 881.554H979.61M979.61 0V44.0777M979.61 0H1023.65M979.61 44.0777V88.1554M979.61 44.0777H1023.65M979.61 88.1554V132.233M979.61 88.1554H1023.65M979.61 132.233V176.311M979.61 132.233H1023.65M979.61 176.311V220.388M979.61 176.311H1023.65M979.61 220.388V264.466M979.61 220.388H1023.65M979.61 264.466V308.544M979.61 264.466H1023.65M979.61 308.544V352.621M979.61 308.544H1023.65M979.61 352.621V396.699M979.61 352.621H1023.65M979.61 396.699V440.777M979.61 396.699H1023.65M979.61 440.777V484.854M979.61 440.777H1023.65M979.61 484.854V528.932M979.61 484.854H1023.65M979.61 528.932V573.01M979.61 528.932H1023.65M979.61 573.01V617.087M979.61 573.01H1023.65M979.61 617.087V661.165M979.61 617.087H1023.65M979.61 661.165V705.243M979.61 661.165H1023.65M979.61 705.243V749.321M979.61 705.243H1023.65M979.61 749.321V793.398M979.61 749.321H1023.65M979.61 793.398V837.476M979.61 793.398H1023.65M979.61 837.476V881.554M979.61 837.476H1023.65M979.61 881.554H1023.65M1023.65 0V44.0777M1023.65 0H1067.68M1023.65 44.0777V88.1554M1023.65 44.0777H1067.68M1023.65 88.1554V132.233M1023.65 88.1554H1067.68M1023.65 132.233V176.311M1023.65 132.233H1067.68M1023.65 176.311V220.388M1023.65 176.311H1067.68M1023.65 220.388V264.466M1023.65 220.388H1067.68M1023.65 264.466V308.544M1023.65 264.466H1067.68M1023.65 308.544V352.621M1023.65 308.544H1067.68M1023.65 352.621V396.699M1023.65 352.621H1067.68M1023.65 396.699V440.777M1023.65 396.699H1067.68M1023.65 440.777V484.854M1023.65 440.777H1067.68M1023.65 484.854V528.932M1023.65 484.854H1067.68M1023.65 528.932V573.01M1023.65 528.932H1067.68M1023.65 573.01V617.087M1023.65 573.01H1067.68M1023.65 617.087V661.165M1023.65 617.087H1067.68M1023.65 661.165V705.243M1023.65 661.165H1067.68M1023.65 705.243V749.321M1023.65 705.243H1067.68M1023.65 749.321V793.398M1023.65 749.321H1067.68M1023.65 793.398V837.476M1023.65 793.398H1067.68M1023.65 837.476V881.554M1023.65 837.476H1067.68M1023.65 881.554H1067.68M1067.68 0V44.0777M1067.68 0H1111.72M1067.68 44.0777V88.1554M1067.68 44.0777H1111.72M1067.68 88.1554V132.233M1067.68 88.1554H1111.72M1067.68 132.233V176.311M1067.68 132.233H1111.72M1067.68 176.311V220.388M1067.68 176.311H1111.72M1067.68 220.388V264.466M1067.68 220.388H1111.72M1067.68 264.466V308.544M1067.68 264.466H1111.72M1067.68 308.544V352.621M1067.68 308.544H1111.72M1067.68 352.621V396.699M1067.68 352.621H1111.72M1067.68 396.699V440.777M1067.68 396.699H1111.72M1067.68 440.777V484.854M1067.68 440.777H1111.72M1067.68 484.854V528.932M1067.68 484.854H1111.72M1067.68 528.932V573.01M1067.68 528.932H1111.72M1067.68 573.01V617.087M1067.68 573.01H1111.72M1067.68 617.087V661.165M1067.68 617.087H1111.72M1067.68 661.165V705.243M1067.68 661.165H1111.72M1067.68 705.243V749.321M1067.68 705.243H1111.72M1067.68 749.321V793.398M1067.68 749.321H1111.72M1067.68 793.398V837.476M1067.68 793.398H1111.72M1067.68 837.476V881.554M1067.68 837.476H1111.72M1067.68 881.554H1111.72M1111.72 0V44.0777M1111.72 0H1155.75M1111.72 44.0777V88.1554M1111.72 44.0777H1155.75M1111.72 88.1554V132.233M1111.72 88.1554H1155.75M1111.72 132.233V176.311M1111.72 132.233H1155.75M1111.72 176.311V220.388M1111.72 176.311H1155.75M1111.72 220.388V264.466M1111.72 220.388H1155.75M1111.72 264.466V308.544M1111.72 264.466H1155.75M1111.72 308.544V352.621M1111.72 308.544H1155.75M1111.72 352.621V396.699M1111.72 352.621H1155.75M1111.72 396.699V440.777M1111.72 396.699H1155.75M1111.72 440.777V484.854M1111.72 440.777H1155.75M1111.72 484.854V528.932M1111.72 484.854H1155.75M1111.72 528.932V573.01M1111.72 528.932H1155.75M1111.72 573.01V617.087M1111.72 573.01H1155.75M1111.72 617.087V661.165M1111.72 617.087H1155.75M1111.72 661.165V705.243M1111.72 661.165H1155.75M1111.72 705.243V749.321M1111.72 705.243H1155.75M1111.72 749.321V793.398M1111.72 749.321H1155.75M1111.72 793.398V837.476M1111.72 793.398H1155.75M1111.72 837.476V881.554M1111.72 837.476H1155.75M1111.72 881.554H1155.75M1155.75 0V44.0777M1155.75 0H1199.79M1155.75 44.0777V88.1554M1155.75 44.0777H1199.79M1155.75 88.1554V132.233M1155.75 88.1554H1199.79M1155.75 132.233V176.311M1155.75 132.233H1199.79M1155.75 176.311V220.388M1155.75 176.311H1199.79M1155.75 220.388V264.466M1155.75 220.388H1199.79M1155.75 264.466V308.544M1155.75 264.466H1199.79M1155.75 308.544V352.621M1155.75 308.544H1199.79M1155.75 352.621V396.699M1155.75 352.621H1199.79M1155.75 396.699V440.777M1155.75 396.699H1199.79M1155.75 440.777V484.854M1155.75 440.777H1199.79M1155.75 484.854V528.932M1155.75 484.854H1199.79M1155.75 528.932V573.01M1155.75 528.932H1199.79M1155.75 573.01V617.087M1155.75 573.01H1199.79M1155.75 617.087V661.165M1155.75 617.087H1199.79M1155.75 661.165V705.243M1155.75 661.165H1199.79M1155.75 705.243V749.321M1155.75 705.243H1199.79M1155.75 749.321V793.398M1155.75 749.321H1199.79M1155.75 793.398V837.476M1155.75 793.398H1199.79M1155.75 837.476V881.554M1155.75 837.476H1199.79M1155.75 881.554H1199.79M1199.79 0V44.0777M1199.79 0H1243.83M1199.79 44.0777V88.1554M1199.79 44.0777H1243.83M1199.79 88.1554V132.233M1199.79 88.1554H1243.83M1199.79 132.233V176.311M1199.79 132.233H1243.83M1199.79 176.311V220.388M1199.79 176.311H1243.83M1199.79 220.388V264.466M1199.79 220.388H1243.83M1199.79 264.466V308.544M1199.79 264.466H1243.83M1199.79 308.544V352.621M1199.79 308.544H1243.83M1199.79 352.621V396.699M1199.79 352.621H1243.83M1199.79 396.699V440.777M1199.79 396.699H1243.83M1199.79 440.777V484.854M1199.79 440.777H1243.83M1199.79 484.854V528.932M1199.79 484.854H1243.83M1199.79 528.932V573.01M1199.79 528.932H1243.83M1199.79 573.01V617.087M1199.79 573.01H1243.83M1199.79 617.087V661.165M1199.79 617.087H1243.83M1199.79 661.165V705.243M1199.79 661.165H1243.83M1199.79 705.243V749.321M1199.79 705.243H1243.83M1199.79 749.321V793.398M1199.79 749.321H1243.83M1199.79 793.398V837.476M1199.79 793.398H1243.83M1199.79 837.476V881.554M1199.79 837.476H1243.83M1199.79 881.554H1243.83M1243.83 0V44.0777M1243.83 0H1287.86M1243.83 44.0777V88.1554M1243.83 44.0777H1287.86M1243.83 88.1554V132.233M1243.83 88.1554H1287.86M1243.83 132.233V176.311M1243.83 132.233H1287.86M1243.83 176.311V220.388M1243.83 176.311H1287.86M1243.83 220.388V264.466M1243.83 220.388H1287.86M1243.83 264.466V308.544M1243.83 264.466H1287.86M1243.83 308.544V352.621M1243.83 308.544H1287.86M1243.83 352.621V396.699M1243.83 352.621H1287.86M1243.83 396.699V440.777M1243.83 396.699H1287.86M1243.83 440.777V484.854M1243.83 440.777H1287.86M1243.83 484.854V528.932M1243.83 484.854H1287.86M1243.83 528.932V573.01M1243.83 528.932H1287.86M1243.83 573.01V617.087M1243.83 573.01H1287.86M1243.83 617.087V661.165M1243.83 617.087H1287.86M1243.83 661.165V705.243M1243.83 661.165H1287.86M1243.83 705.243V749.321M1243.83 705.243H1287.86M1243.83 749.321V793.398M1243.83 749.321H1287.86M1243.83 793.398V837.476M1243.83 793.398H1287.86M1243.83 837.476V881.554M1243.83 837.476H1287.86M1243.83 881.554H1287.86M1287.86 0V44.0777M1287.86 0H1331.9M1287.86 44.0777V88.1554M1287.86 44.0777H1331.9M1287.86 88.1554V132.233M1287.86 88.1554H1331.9M1287.86 132.233V176.311M1287.86 132.233H1331.9M1287.86 176.311V220.388M1287.86 176.311H1331.9M1287.86 220.388V264.466M1287.86 220.388H1331.9M1287.86 264.466V308.544M1287.86 264.466H1331.9M1287.86 308.544V352.621M1287.86 308.544H1331.9M1287.86 352.621V396.699M1287.86 352.621H1331.9M1287.86 396.699V440.777M1287.86 396.699H1331.9M1287.86 440.777V484.854M1287.86 440.777H1331.9M1287.86 484.854V528.932M1287.86 484.854H1331.9M1287.86 528.932V573.01M1287.86 528.932H1331.9M1287.86 573.01V617.087M1287.86 573.01H1331.9M1287.86 617.087V661.165M1287.86 617.087H1331.9M1287.86 661.165V705.243M1287.86 661.165H1331.9M1287.86 705.243V749.321M1287.86 705.243H1331.9M1287.86 749.321V793.398M1287.86 749.321H1331.9M1287.86 793.398V837.476M1287.86 793.398H1331.9M1287.86 837.476V881.554M1287.86 837.476H1331.9M1287.86 881.554H1331.9M1331.9 0V44.0777M1331.9 0H1375.93M1331.9 44.0777V88.1554M1331.9 44.0777H1375.93M1331.9 88.1554V132.233M1331.9 88.1554H1375.93M1331.9 132.233V176.311M1331.9 132.233H1375.93M1331.9 176.311V220.388M1331.9 176.311H1375.93M1331.9 220.388V264.466M1331.9 220.388H1375.93M1331.9 264.466V308.544M1331.9 264.466H1375.93M1331.9 308.544V352.621M1331.9 308.544H1375.93M1331.9 352.621V396.699M1331.9 352.621H1375.93M1331.9 396.699V440.777M1331.9 396.699H1375.93M1331.9 440.777V484.854M1331.9 440.777H1375.93M1331.9 484.854V528.932M1331.9 484.854H1375.93M1331.9 528.932V573.01M1331.9 528.932H1375.93M1331.9 573.01V617.087M1331.9 573.01H1375.93M1331.9 617.087V661.165M1331.9 617.087H1375.93M1331.9 661.165V705.243M1331.9 661.165H1375.93M1331.9 705.243V749.321M1331.9 705.243H1375.93M1331.9 749.321V793.398M1331.9 749.321H1375.93M1331.9 793.398V837.476M1331.9 793.398H1375.93M1331.9 837.476V881.554M1331.9 837.476H1375.93M1331.9 881.554H1375.93M1375.93 0V44.0777M1375.93 0H1419.97M1375.93 44.0777V88.1554M1375.93 44.0777H1419.97M1375.93 88.1554V132.233M1375.93 88.1554H1419.97M1375.93 132.233V176.311M1375.93 132.233H1419.97M1375.93 176.311V220.388M1375.93 176.311H1419.97M1375.93 220.388V264.466M1375.93 220.388H1419.97M1375.93 264.466V308.544M1375.93 264.466H1419.97M1375.93 308.544V352.621M1375.93 308.544H1419.97M1375.93 352.621V396.699M1375.93 352.621H1419.97M1375.93 396.699V440.777M1375.93 396.699H1419.97M1375.93 440.777V484.854M1375.93 440.777H1419.97M1375.93 484.854V528.932M1375.93 484.854H1419.97M1375.93 528.932V573.01M1375.93 528.932H1419.97M1375.93 573.01V617.087M1375.93 573.01H1419.97M1375.93 617.087V661.165M1375.93 617.087H1419.97M1375.93 661.165V705.243M1375.93 661.165H1419.97M1375.93 705.243V749.321M1375.93 705.243H1419.97M1375.93 749.321V793.398M1375.93 749.321H1419.97M1375.93 793.398V837.476M1375.93 793.398H1419.97M1375.93 837.476V881.554M1375.93 837.476H1419.97M1375.93 881.554H1419.97M1419.97 0V44.0777M1419.97 0H1464M1419.97 44.0777V88.1554M1419.97 44.0777H1464M1419.97 88.1554V132.233M1419.97 88.1554H1464M1419.97 132.233V176.311M1419.97 132.233H1464M1419.97 176.311V220.388M1419.97 176.311H1464M1419.97 220.388V264.466M1419.97 220.388H1464M1419.97 264.466V308.544M1419.97 264.466H1464M1419.97 308.544V352.621M1419.97 308.544H1464M1419.97 352.621V396.699M1419.97 352.621H1464M1419.97 396.699V440.777M1419.97 396.699H1464M1419.97 440.777V484.854M1419.97 440.777H1464M1419.97 484.854V528.932M1419.97 484.854H1464M1419.97 528.932V573.01M1419.97 528.932H1464M1419.97 573.01V617.087M1419.97 573.01H1464M1419.97 617.087V661.165M1419.97 617.087H1464M1419.97 661.165V705.243M1419.97 661.165H1464M1419.97 705.243V749.321M1419.97 705.243H1464M1419.97 749.321V793.398M1419.97 749.321H1464M1419.97 793.398V837.476M1419.97 793.398H1464M1419.97 837.476V881.554M1419.97 837.476H1464M1419.97 881.554H1464M1464 0V44.0777M1464 0H1508.04M1464 44.0777V88.1554M1464 44.0777H1508.04M1464 88.1554V132.233M1464 88.1554H1508.04M1464 132.233V176.311M1464 132.233H1508.04M1464 176.311V220.388M1464 176.311H1508.04M1464 220.388V264.466M1464 220.388H1508.04M1464 264.466V308.544M1464 264.466H1508.04M1464 308.544V352.621M1464 308.544H1508.04M1464 352.621V396.699M1464 352.621H1508.04M1464 396.699V440.777M1464 396.699H1508.04M1464 440.777V484.854M1464 440.777H1508.04M1464 484.854V528.932M1464 484.854H1508.04M1464 528.932V573.01M1464 528.932H1508.04M1464 573.01V617.087M1464 573.01H1508.04M1464 617.087V661.165M1464 617.087H1508.04M1464 661.165V705.243M1464 661.165H1508.04M1464 705.243V749.321M1464 705.243H1508.04M1464 749.321V793.398M1464 749.321H1508.04M1464 793.398V837.476M1464 793.398H1508.04M1464 837.476V881.554M1464 837.476H1508.04M1464 881.554H1508.04M1508.04 0V44.0777M1508.04 0H1552.08M1508.04 44.0777V88.1554M1508.04 44.0777H1552.08M1508.04 88.1554V132.233M1508.04 88.1554H1552.08M1508.04 132.233V176.311M1508.04 132.233H1552.08M1508.04 176.311V220.388M1508.04 176.311H1552.08M1508.04 220.388V264.466M1508.04 220.388H1552.08M1508.04 264.466V308.544M1508.04 264.466H1552.08M1508.04 308.544V352.621M1508.04 308.544H1552.08M1508.04 352.621V396.699M1508.04 352.621H1552.08M1508.04 396.699V440.777M1508.04 396.699H1552.08M1508.04 440.777V484.854M1508.04 440.777H1552.08M1508.04 484.854V528.932M1508.04 484.854H1552.08M1508.04 528.932V573.01M1508.04 528.932H1552.08M1508.04 573.01V617.087M1508.04 573.01H1552.08M1508.04 617.087V661.165M1508.04 617.087H1552.08M1508.04 661.165V705.243M1508.04 661.165H1552.08M1508.04 705.243V749.321M1508.04 705.243H1552.08M1508.04 749.321V793.398M1508.04 749.321H1552.08M1508.04 793.398V837.476M1508.04 793.398H1552.08M1508.04 837.476V881.554M1508.04 837.476H1552.08M1508.04 881.554H1552.08M1552.08 0V44.0777M1552.08 0H1596.11M1552.08 44.0777V88.1554M1552.08 44.0777H1596.11M1552.08 88.1554V132.233M1552.08 88.1554H1596.11M1552.08 132.233V176.311M1552.08 132.233H1596.11M1552.08 176.311V220.388M1552.08 176.311H1596.11M1552.08 220.388V264.466M1552.08 220.388H1596.11M1552.08 264.466V308.544M1552.08 264.466H1596.11M1552.08 308.544V352.621M1552.08 308.544H1596.11M1552.08 352.621V396.699M1552.08 352.621H1596.11M1552.08 396.699V440.777M1552.08 396.699H1596.11M1552.08 440.777V484.854M1552.08 440.777H1596.11M1552.08 484.854V528.932M1552.08 484.854H1596.11M1552.08 528.932V573.01M1552.08 528.932H1596.11M1552.08 573.01V617.087M1552.08 573.01H1596.11M1552.08 617.087V661.165M1552.08 617.087H1596.11M1552.08 661.165V705.243M1552.08 661.165H1596.11M1552.08 705.243V749.321M1552.08 705.243H1596.11M1552.08 749.321V793.398M1552.08 749.321H1596.11M1552.08 793.398V837.476M1552.08 793.398H1596.11M1552.08 837.476V881.554M1552.08 837.476H1596.11M1552.08 881.554H1596.11M1596.11 0V44.0777M1596.11 0H1640.15M1596.11 44.0777V88.1554M1596.11 44.0777H1640.15M1596.11 88.1554V132.233M1596.11 88.1554H1640.15M1596.11 132.233V176.311M1596.11 132.233H1640.15M1596.11 176.311V220.388M1596.11 176.311H1640.15M1596.11 220.388V264.466M1596.11 220.388H1640.15M1596.11 264.466V308.544M1596.11 264.466H1640.15M1596.11 308.544V352.621M1596.11 308.544H1640.15M1596.11 352.621V396.699M1596.11 352.621H1640.15M1596.11 396.699V440.777M1596.11 396.699H1640.15M1596.11 440.777V484.854M1596.11 440.777H1640.15M1596.11 484.854V528.932M1596.11 484.854H1640.15M1596.11 528.932V573.01M1596.11 528.932H1640.15M1596.11 573.01V617.087M1596.11 573.01H1640.15M1596.11 617.087V661.165M1596.11 617.087H1640.15M1596.11 661.165V705.243M1596.11 661.165H1640.15M1596.11 705.243V749.321M1596.11 705.243H1640.15M1596.11 749.321V793.398M1596.11 749.321H1640.15M1596.11 793.398V837.476M1596.11 793.398H1640.15M1596.11 837.476V881.554M1596.11 837.476H1640.15M1596.11 881.554H1640.15M1640.15 0V44.0777M1640.15 0H1684.18M1640.15 44.0777V88.1554M1640.15 44.0777H1684.18M1640.15 88.1554V132.233M1640.15 88.1554H1684.18M1640.15 132.233V176.311M1640.15 132.233H1684.18M1640.15 176.311V220.388M1640.15 176.311H1684.18M1640.15 220.388V264.466M1640.15 220.388H1684.18M1640.15 264.466V308.544M1640.15 264.466H1684.18M1640.15 308.544V352.621M1640.15 308.544H1684.18M1640.15 352.621V396.699M1640.15 352.621H1684.18M1640.15 396.699V440.777M1640.15 396.699H1684.18M1640.15 440.777V484.854M1640.15 440.777H1684.18M1640.15 484.854V528.932M1640.15 484.854H1684.18M1640.15 528.932V573.01M1640.15 528.932H1684.18M1640.15 573.01V617.087M1640.15 573.01H1684.18M1640.15 617.087V661.165M1640.15 617.087H1684.18M1640.15 661.165V705.243M1640.15 661.165H1684.18M1640.15 705.243V749.321M1640.15 705.243H1684.18M1640.15 749.321V793.398M1640.15 749.321H1684.18M1640.15 793.398V837.476M1640.15 793.398H1684.18M1640.15 837.476V881.554M1640.15 837.476H1684.18M1640.15 881.554H1684.18M1684.18 0V44.0777M1684.18 0H1728.22M1684.18 44.0777V88.1554M1684.18 44.0777H1728.22M1684.18 88.1554V132.233M1684.18 88.1554H1728.22M1684.18 132.233V176.311M1684.18 132.233H1728.22M1684.18 176.311V220.388M1684.18 176.311H1728.22M1684.18 220.388V264.466M1684.18 220.388H1728.22M1684.18 264.466V308.544M1684.18 264.466H1728.22M1684.18 308.544V352.621M1684.18 308.544H1728.22M1684.18 352.621V396.699M1684.18 352.621H1728.22M1684.18 396.699V440.777M1684.18 396.699H1728.22M1684.18 440.777V484.854M1684.18 440.777H1728.22M1684.18 484.854V528.932M1684.18 484.854H1728.22M1684.18 528.932V573.01M1684.18 528.932H1728.22M1684.18 573.01V617.087M1684.18 573.01H1728.22M1684.18 617.087V661.165M1684.18 617.087H1728.22M1684.18 661.165V705.243M1684.18 661.165H1728.22M1684.18 705.243V749.321M1684.18 705.243H1728.22M1684.18 749.321V793.398M1684.18 749.321H1728.22M1684.18 793.398V837.476M1684.18 793.398H1728.22M1684.18 837.476V881.554M1684.18 837.476H1728.22M1684.18 881.554H1728.22M1728.22 0V44.0777M1728.22 0H1772.26M1728.22 44.0777V88.1554M1728.22 44.0777H1772.26M1728.22 88.1554V132.233M1728.22 88.1554H1772.26M1728.22 132.233V176.311M1728.22 132.233H1772.26M1728.22 176.311V220.388M1728.22 176.311H1772.26M1728.22 220.388V264.466M1728.22 220.388H1772.26M1728.22 264.466V308.544M1728.22 264.466H1772.26M1728.22 308.544V352.621M1728.22 308.544H1772.26M1728.22 352.621V396.699M1728.22 352.621H1772.26M1728.22 396.699V440.777M1728.22 396.699H1772.26M1728.22 440.777V484.854M1728.22 440.777H1772.26M1728.22 484.854V528.932M1728.22 484.854H1772.26M1728.22 528.932V573.01M1728.22 528.932H1772.26M1728.22 573.01V617.087M1728.22 573.01H1772.26M1728.22 617.087V661.165M1728.22 617.087H1772.26M1728.22 661.165V705.243M1728.22 661.165H1772.26M1728.22 705.243V749.321M1728.22 705.243H1772.26M1728.22 749.321V793.398M1728.22 749.321H1772.26M1728.22 793.398V837.476M1728.22 793.398H1772.26M1728.22 837.476V881.554M1728.22 837.476H1772.26M1728.22 881.554H1772.26M1772.26 0V44.0777M1772.26 0H1816.29M1772.26 44.0777V88.1554M1772.26 44.0777H1816.29M1772.26 88.1554V132.233M1772.26 88.1554H1816.29M1772.26 132.233V176.311M1772.26 132.233H1816.29M1772.26 176.311V220.388M1772.26 176.311H1816.29M1772.26 220.388V264.466M1772.26 220.388H1816.29M1772.26 264.466V308.544M1772.26 264.466H1816.29M1772.26 308.544V352.621M1772.26 308.544H1816.29M1772.26 352.621V396.699M1772.26 352.621H1816.29M1772.26 396.699V440.777M1772.26 396.699H1816.29M1772.26 440.777V484.854M1772.26 440.777H1816.29M1772.26 484.854V528.932M1772.26 484.854H1816.29M1772.26 528.932V573.01M1772.26 528.932H1816.29M1772.26 573.01V617.087M1772.26 573.01H1816.29M1772.26 617.087V661.165M1772.26 617.087H1816.29M1772.26 661.165V705.243M1772.26 661.165H1816.29M1772.26 705.243V749.321M1772.26 705.243H1816.29M1772.26 749.321V793.398M1772.26 749.321H1816.29M1772.26 793.398V837.476M1772.26 793.398H1816.29M1772.26 837.476V881.554M1772.26 837.476H1816.29M1772.26 881.554H1816.29M1816.29 0V44.0777M1816.29 0H1860.33M1816.29 44.0777V88.1554M1816.29 44.0777H1860.33M1816.29 88.1554V132.233M1816.29 88.1554H1860.33M1816.29 132.233V176.311M1816.29 132.233H1860.33M1816.29 176.311V220.388M1816.29 176.311H1860.33M1816.29 220.388V264.466M1816.29 220.388H1860.33M1816.29 264.466V308.544M1816.29 264.466H1860.33M1816.29 308.544V352.621M1816.29 308.544H1860.33M1816.29 352.621V396.699M1816.29 352.621H1860.33M1816.29 396.699V440.777M1816.29 396.699H1860.33M1816.29 440.777V484.854M1816.29 440.777H1860.33M1816.29 484.854V528.932M1816.29 484.854H1860.33M1816.29 528.932V573.01M1816.29 528.932H1860.33M1816.29 573.01V617.087M1816.29 573.01H1860.33M1816.29 617.087V661.165M1816.29 617.087H1860.33M1816.29 661.165V705.243M1816.29 661.165H1860.33M1816.29 705.243V749.321M1816.29 705.243H1860.33M1816.29 749.321V793.398M1816.29 749.321H1860.33M1816.29 793.398V837.476M1816.29 793.398H1860.33M1816.29 837.476V881.554M1816.29 837.476H1860.33M1816.29 881.554H1860.33M1860.33 0V44.0777M1860.33 0H1904.36M1860.33 44.0777V88.1554M1860.33 44.0777H1904.36M1860.33 88.1554V132.233M1860.33 88.1554H1904.36M1860.33 132.233V176.311M1860.33 132.233H1904.36M1860.33 176.311V220.388M1860.33 176.311H1904.36M1860.33 220.388V264.466M1860.33 220.388H1904.36M1860.33 264.466V308.544M1860.33 264.466H1904.36M1860.33 308.544V352.621M1860.33 308.544H1904.36M1860.33 352.621V396.699M1860.33 352.621H1904.36M1860.33 396.699V440.777M1860.33 396.699H1904.36M1860.33 440.777V484.854M1860.33 440.777H1904.36M1860.33 484.854V528.932M1860.33 484.854H1904.36M1860.33 528.932V573.01M1860.33 528.932H1904.36M1860.33 573.01V617.087M1860.33 573.01H1904.36M1860.33 617.087V661.165M1860.33 617.087H1904.36M1860.33 661.165V705.243M1860.33 661.165H1904.36M1860.33 705.243V749.321M1860.33 705.243H1904.36M1860.33 749.321V793.398M1860.33 749.321H1904.36M1860.33 793.398V837.476M1860.33 793.398H1904.36M1860.33 837.476V881.554M1860.33 837.476H1904.36M1860.33 881.554H1904.36M1904.36 0V44.0777M1904.36 0H1948.4M1904.36 44.0777V88.1554M1904.36 44.0777H1948.4M1904.36 88.1554V132.233M1904.36 88.1554H1948.4M1904.36 132.233V176.311M1904.36 132.233H1948.4M1904.36 176.311V220.388M1904.36 176.311H1948.4M1904.36 220.388V264.466M1904.36 220.388H1948.4M1904.36 264.466V308.544M1904.36 264.466H1948.4M1904.36 308.544V352.621M1904.36 308.544H1948.4M1904.36 352.621V396.699M1904.36 352.621H1948.4M1904.36 396.699V440.777M1904.36 396.699H1948.4M1904.36 440.777V484.854M1904.36 440.777H1948.4M1904.36 484.854V528.932M1904.36 484.854H1948.4M1904.36 528.932V573.01M1904.36 528.932H1948.4M1904.36 573.01V617.087M1904.36 573.01H1948.4M1904.36 617.087V661.165M1904.36 617.087H1948.4M1904.36 661.165V705.243M1904.36 661.165H1948.4M1904.36 705.243V749.321M1904.36 705.243H1948.4M1904.36 749.321V793.398M1904.36 749.321H1948.4M1904.36 793.398V837.476M1904.36 793.398H1948.4M1904.36 837.476V881.554M1904.36 837.476H1948.4M1904.36 881.554H1948.4M1948.4 0V44.0777M1948.4 0H1992.43M1948.4 44.0777V88.1554M1948.4 44.0777H1992.43M1948.4 88.1554V132.233M1948.4 88.1554H1992.43M1948.4 132.233V176.311M1948.4 132.233H1992.43M1948.4 176.311V220.388M1948.4 176.311H1992.43M1948.4 220.388V264.466M1948.4 220.388H1992.43M1948.4 264.466V308.544M1948.4 264.466H1992.43M1948.4 308.544V352.621M1948.4 308.544H1992.43M1948.4 352.621V396.699M1948.4 352.621H1992.43M1948.4 396.699V440.777M1948.4 396.699H1992.43M1948.4 440.777V484.854M1948.4 440.777H1992.43M1948.4 484.854V528.932M1948.4 484.854H1992.43M1948.4 528.932V573.01M1948.4 528.932H1992.43M1948.4 573.01V617.087M1948.4 573.01H1992.43M1948.4 617.087V661.165M1948.4 617.087H1992.43M1948.4 661.165V705.243M1948.4 661.165H1992.43M1948.4 705.243V749.321M1948.4 705.243H1992.43M1948.4 749.321V793.398M1948.4 749.321H1992.43M1948.4 793.398V837.476M1948.4 793.398H1992.43M1948.4 837.476V881.554M1948.4 837.476H1992.43M1948.4 881.554H1992.43M1992.43 0V44.0777M1992.43 0H2036.47M1992.43 44.0777V88.1554M1992.43 44.0777H2036.47M1992.43 88.1554V132.233M1992.43 88.1554H2036.47M1992.43 132.233V176.311M1992.43 132.233H2036.47M1992.43 176.311V220.388M1992.43 176.311H2036.47M1992.43 220.388V264.466M1992.43 220.388H2036.47M1992.43 264.466V308.544M1992.43 264.466H2036.47M1992.43 308.544V352.621M1992.43 308.544H2036.47M1992.43 352.621V396.699M1992.43 352.621H2036.47M1992.43 396.699V440.777M1992.43 396.699H2036.47M1992.43 440.777V484.854M1992.43 440.777H2036.47M1992.43 484.854V528.932M1992.43 484.854H2036.47M1992.43 528.932V573.01M1992.43 528.932H2036.47M1992.43 573.01V617.087M1992.43 573.01H2036.47M1992.43 617.087V661.165M1992.43 617.087H2036.47M1992.43 661.165V705.243M1992.43 661.165H2036.47M1992.43 705.243V749.321M1992.43 705.243H2036.47M1992.43 749.321V793.398M1992.43 749.321H2036.47M1992.43 793.398V837.476M1992.43 793.398H2036.47M1992.43 837.476V881.554M1992.43 837.476H2036.47M1992.43 881.554H2036.47M2036.47 0V44.0777M2036.47 0H2080.51M2036.47 44.0777V88.1554M2036.47 44.0777H2080.51M2036.47 88.1554V132.233M2036.47 88.1554H2080.51M2036.47 132.233V176.311M2036.47 132.233H2080.51M2036.47 176.311V220.388M2036.47 176.311H2080.51M2036.47 220.388V264.466M2036.47 220.388H2080.51M2036.47 264.466V308.544M2036.47 264.466H2080.51M2036.47 308.544V352.621M2036.47 308.544H2080.51M2036.47 352.621V396.699M2036.47 352.621H2080.51M2036.47 396.699V440.777M2036.47 396.699H2080.51M2036.47 440.777V484.854M2036.47 440.777H2080.51M2036.47 484.854V528.932M2036.47 484.854H2080.51M2036.47 528.932V573.01M2036.47 528.932H2080.51M2036.47 573.01V617.087M2036.47 573.01H2080.51M2036.47 617.087V661.165M2036.47 617.087H2080.51M2036.47 661.165V705.243M2036.47 661.165H2080.51M2036.47 705.243V749.321M2036.47 705.243H2080.51M2036.47 749.321V793.398M2036.47 749.321H2080.51M2036.47 793.398V837.476M2036.47 793.398H2080.51M2036.47 837.476V881.554M2036.47 837.476H2080.51M2036.47 881.554H2080.51M2080.51 0V44.0777M2080.51 0H2124.54M2080.51 44.0777V88.1554M2080.51 44.0777H2124.54M2080.51 88.1554V132.233M2080.51 88.1554H2124.54M2080.51 132.233V176.311M2080.51 132.233H2124.54M2080.51 176.311V220.388M2080.51 176.311H2124.54M2080.51 220.388V264.466M2080.51 220.388H2124.54M2080.51 264.466V308.544M2080.51 264.466H2124.54M2080.51 308.544V352.621M2080.51 308.544H2124.54M2080.51 352.621V396.699M2080.51 352.621H2124.54M2080.51 396.699V440.777M2080.51 396.699H2124.54M2080.51 440.777V484.854M2080.51 440.777H2124.54M2080.51 484.854V528.932M2080.51 484.854H2124.54M2080.51 528.932V573.01M2080.51 528.932H2124.54M2080.51 573.01V617.087M2080.51 573.01H2124.54M2080.51 617.087V661.165M2080.51 617.087H2124.54M2080.51 661.165V705.243M2080.51 661.165H2124.54M2080.51 705.243V749.321M2080.51 705.243H2124.54M2080.51 749.321V793.398M2080.51 749.321H2124.54M2080.51 793.398V837.476M2080.51 793.398H2124.54M2080.51 837.476V881.554M2080.51 837.476H2124.54M2080.51 881.554H2124.54M2124.54 0V44.0777M2124.54 0H2168.58V44.0777M2124.54 44.0777V88.1554M2124.54 44.0777H2168.58M2124.54 88.1554V132.233M2124.54 88.1554H2168.58M2124.54 132.233V176.311M2124.54 132.233H2168.58M2124.54 176.311V220.388M2124.54 176.311H2168.58M2124.54 220.388V264.466M2124.54 220.388H2168.58M2124.54 264.466V308.544M2124.54 264.466H2168.58M2124.54 308.544V352.621M2124.54 308.544H2168.58M2124.54 352.621V396.699M2124.54 352.621H2168.58M2124.54 396.699V440.777M2124.54 396.699H2168.58M2124.54 440.777V484.854M2124.54 440.777H2168.58M2124.54 484.854V528.932M2124.54 484.854H2168.58M2124.54 528.932V573.01M2124.54 528.932H2168.58M2124.54 573.01V617.087M2124.54 573.01H2168.58M2124.54 617.087V661.165M2124.54 617.087H2168.58M2124.54 661.165V705.243M2124.54 661.165H2168.58M2124.54 705.243V749.321M2124.54 705.243H2168.58M2124.54 749.321V793.398M2124.54 749.321H2168.58M2124.54 793.398V837.476M2124.54 793.398H2168.58M2124.54 837.476V881.554M2124.54 837.476H2168.58M2124.54 881.554H2168.58V837.476M2168.58 44.0777V88.1554M2168.58 88.1554V132.233M2168.58 132.233V176.311M2168.58 176.311V220.388M2168.58 220.388V264.466M2168.58 264.466V308.544M2168.58 308.544V352.621M2168.58 352.621V396.699M2168.58 396.699V440.777M2168.58 440.777V484.854M2168.58 484.854V528.932M2168.58 528.932V573.01M2168.58 573.01V617.087M2168.58 617.087V661.165M2168.58 661.165V705.243M2168.58 705.243V749.321M2168.58 749.321V793.398M2168.58 793.398V837.476" stroke="url(#paint1_radial_1466_9384)" stroke-width="0.8"/>
</g>
</g>
<defs>
<radialGradient id="paint0_radial_1466_9384" cx="0" cy="0" r="1" gradientUnits="userSpaceOnUse" gradientTransform="translate(1199.79 440.776) rotate(90) scale(454 792.982)">
<stop offset="0.665789" stop-color="white"/>
<stop offset="1" stop-color="white" stop-opacity="0.2"/>
</radialGradient>
<radialGradient id="paint1_radial_1466_9384" cx="0" cy="0" r="1" gradientUnits="userSpaceOnUse" gradientTransform="translate(1199.79 412.587) rotate(90) scale(497.956 883.799)">
<stop offset="0.665789" stop-color="white"/>
<stop offset="1" stop-color="white" stop-opacity="0.2"/>
</radialGradient>
<clipPath id="clip0_1466_9384">
<rect width="2400" height="890" fill="white"/>
</clipPath>
</defs>
</svg>
