<svg width="700" height="486" viewBox="0 0 700 486" fill="none" xmlns="http://www.w3.org/2000/svg">
<g clip-path="url(#clip0_1312_6065)">
<g opacity="0.72">
<path d="M158.512 107.153C158.732 107.664 158.26 108.158 157.771 107.928C157.666 107.877 157.584 107.792 157.535 107.681C157.307 107.17 157.788 106.677 158.276 106.906C158.382 106.958 158.464 107.043 158.512 107.153Z" fill="white" fill-opacity="0.16"/>
<path d="M550.372 77.6004C550.593 78.1111 550.119 78.6048 549.629 78.375C549.523 78.3239 549.441 78.2388 549.392 78.1281C549.172 77.6174 549.645 77.1237 550.135 77.3535C550.242 77.4046 550.323 77.4897 550.372 77.6004Z" fill="white" fill-opacity="0.16"/>
<path d="M465.78 126.312C466 126.822 465.528 127.316 465.039 127.086C464.933 127.035 464.852 126.95 464.803 126.839C464.575 126.329 465.055 125.835 465.544 126.065C465.65 126.116 465.731 126.201 465.78 126.312Z" fill="white" fill-opacity="0.16"/>
<path d="M350.884 360.358C351.112 360.869 350.632 361.363 350.143 361.133C350.037 361.082 349.956 360.997 349.907 360.886C349.687 360.375 350.159 359.882 350.648 360.112C350.754 360.163 350.835 360.248 350.884 360.358Z" fill="white" fill-opacity="0.16"/>
<path d="M421.741 373.46C421.969 373.969 421.489 374.47 421 374.232C420.894 374.181 420.813 374.097 420.764 373.986C420.544 373.477 421.016 372.984 421.505 373.214C421.611 373.265 421.692 373.349 421.741 373.46Z" fill="white" fill-opacity="0.16"/>
<path d="M430.871 255.892C431.091 256.402 430.619 256.896 430.13 256.666C430.024 256.615 429.943 256.53 429.894 256.419C429.666 255.909 430.146 255.415 430.635 255.645C430.741 255.696 430.822 255.781 430.871 255.892Z" fill="white" fill-opacity="0.16"/>
<path d="M558.923 130.811C559.151 131.322 558.671 131.816 558.182 131.586C558.076 131.535 557.995 131.449 557.946 131.339C557.726 130.828 558.198 130.334 558.687 130.564C558.793 130.615 558.874 130.7 558.923 130.811Z" fill="white" fill-opacity="0.16"/>
<path d="M281.249 62.9113C281.468 63.422 280.996 63.9157 280.508 63.6859C280.402 63.6348 280.32 63.5497 280.271 63.439C280.043 62.9283 280.524 62.4346 281.012 62.6644C281.118 62.7155 281.2 62.8006 281.249 62.9113Z" fill="white" fill-opacity="0.16"/>
<path d="M433.052 25.1483C433.272 25.6591 432.8 26.1528 432.311 25.923C432.205 25.8719 432.124 25.7868 432.075 25.6761C431.847 25.1654 432.327 24.6716 432.816 24.9015C432.922 24.9526 433.003 25.0377 433.052 25.1483Z" fill="white" fill-opacity="0.4"/>
<path d="M289.042 424.118C289.27 424.629 288.79 425.123 288.301 424.893C288.195 424.842 288.114 424.757 288.065 424.646C287.845 424.135 288.318 423.641 288.806 423.871C288.912 423.922 288.993 424.007 289.042 424.118Z" fill="white" fill-opacity="0.16"/>
<path d="M423.235 466.175C423.455 466.686 422.983 467.179 422.494 466.95C422.388 466.899 422.307 466.813 422.258 466.703C422.03 466.192 422.51 465.698 422.999 465.928C423.105 465.979 423.186 466.064 423.235 466.175Z" fill="white" fill-opacity="0.4"/>
<path d="M107.949 169.505C108.169 170.016 107.695 170.509 107.206 170.28C107.099 170.229 107.018 170.143 106.969 170.033C106.748 169.522 107.222 169.028 107.712 169.258C107.818 169.309 107.9 169.394 107.949 169.505Z" fill="white" fill-opacity="0.4"/>
<path d="M172.991 192.072C173.219 192.582 172.738 193.076 172.25 192.846C172.144 192.795 172.062 192.71 172.014 192.599C171.794 192.089 172.266 191.595 172.755 191.825C172.86 191.876 172.942 191.961 172.991 192.072Z" fill="white" fill-opacity="0.16"/>
<path d="M182.134 324.092C182.354 324.602 181.881 325.096 181.391 324.866C181.285 324.815 181.203 324.73 181.154 324.619C180.934 324.109 181.407 323.615 181.897 323.845C182.003 323.896 182.085 323.981 182.134 324.092Z" fill="white" fill-opacity="0.16"/>
<path d="M174.498 263.848C174.718 264.359 174.246 264.853 173.757 264.623C173.651 264.572 173.57 264.487 173.521 264.376C173.293 263.865 173.773 263.372 174.262 263.601C174.368 263.653 174.449 263.738 174.498 263.848Z" fill="white" fill-opacity="0.16"/>
<path d="M272.572 20.3996C272.792 20.9103 272.319 21.404 271.831 21.1742C271.725 21.1231 271.644 21.038 271.595 20.9273C271.367 20.4166 271.847 19.9229 272.336 20.1527C272.442 20.2038 272.523 20.2889 272.572 20.3996Z" fill="white" fill-opacity="0.4"/>
<path d="M421.368 190.272C421.588 190.782 421.115 191.276 420.625 191.046C420.519 190.995 420.437 190.91 420.388 190.799C420.168 190.289 420.641 189.795 421.131 190.025C421.237 190.076 421.319 190.161 421.368 190.272Z" fill="white" fill-opacity="0.16"/>
<path d="M384.702 235.855C384.923 236.366 384.449 236.86 383.959 236.63C383.853 236.579 383.772 236.494 383.723 236.383C383.502 235.872 383.976 235.378 384.466 235.608C384.572 235.659 384.653 235.744 384.702 235.855Z" fill="white" fill-opacity="0.4"/>
<path d="M239.212 319.298C239.702 319.069 240.176 319.561 239.955 320.071C239.906 320.181 239.825 320.266 239.719 320.317C239.229 320.555 238.755 320.054 238.976 319.544C239.025 319.434 239.106 319.349 239.212 319.298Z" fill="white" fill-opacity="0.4"/>
<path d="M285.11 148.431C285.329 148.941 284.857 149.435 284.369 149.205C284.263 149.154 284.181 149.069 284.132 148.958C283.904 148.448 284.385 147.954 284.873 148.184C284.979 148.235 285.061 148.32 285.11 148.431Z" fill="white" fill-opacity="0.16"/>
<path d="M629.424 99.0316C629.644 99.5424 629.171 100.036 628.683 99.8063C628.577 99.7552 628.496 99.6701 628.447 99.5594C628.219 99.0487 628.699 98.5549 629.188 98.7848C629.293 98.8359 629.375 98.921 629.424 99.0316Z" fill="white" fill-opacity="0.16"/>
<path d="M413.906 385.711C414.126 386.222 413.654 386.715 413.165 386.485C413.059 386.434 412.978 386.349 412.929 386.239C412.701 385.728 413.182 385.234 413.67 385.464C413.776 385.515 413.857 385.6 413.906 385.711Z" fill="white" fill-opacity="0.16"/>
<path d="M105.766 476.407C105.986 476.917 105.514 477.409 105.025 477.18C104.919 477.129 104.838 477.044 104.789 476.934C104.561 476.424 105.041 475.923 105.53 476.161C105.636 476.212 105.717 476.297 105.766 476.407Z" fill="white" fill-opacity="0.16"/>
<path d="M550.49 166.718C550.71 167.228 550.237 167.722 549.747 167.492C549.641 167.441 549.559 167.356 549.51 167.245C549.29 166.735 549.763 166.241 550.253 166.471C550.359 166.522 550.441 166.607 550.49 166.718Z" fill="white" fill-opacity="0.16"/>
<path d="M616.417 449.885C616.637 450.395 616.165 450.887 615.676 450.658C615.57 450.607 615.489 450.522 615.44 450.412C615.212 449.902 615.692 449.401 616.181 449.639C616.287 449.69 616.368 449.775 616.417 449.885Z" fill="white" fill-opacity="0.16"/>
<path d="M157.216 433.04C157.444 433.551 156.964 434.045 156.475 433.815C156.369 433.764 156.288 433.679 156.239 433.568C156.019 433.057 156.492 432.563 156.98 432.793C157.086 432.844 157.167 432.93 157.216 433.04Z" fill="white" fill-opacity="0.4"/>
<path d="M1.03533 420.708C1.25578 421.219 0.78223 421.713 0.292355 421.483C0.186216 421.432 0.104588 421.347 0.0556008 421.236C-0.164843 420.725 0.30868 420.232 0.798555 420.462C0.904694 420.513 0.986347 420.598 1.03533 420.708Z" fill="white" fill-opacity="0.16"/>
<path d="M161.798 378.466C162.018 378.976 161.545 379.47 161.055 379.24C160.949 379.189 160.867 379.104 160.818 378.993C160.597 378.483 161.071 377.989 161.561 378.219C161.667 378.27 161.749 378.355 161.798 378.466Z" fill="white" fill-opacity="0.16"/>
<path d="M491.571 449.125C491.791 449.636 491.318 450.13 490.828 449.9C490.722 449.849 490.64 449.764 490.591 449.653C490.371 449.142 490.844 448.648 491.334 448.878C491.44 448.929 491.522 449.014 491.571 449.125Z" fill="white" fill-opacity="0.16"/>
<path d="M518.574 0.63516C518.802 1.1459 518.322 1.63962 517.833 1.40979C517.727 1.35871 517.646 1.27359 517.597 1.16293C517.377 0.652187 517.849 0.158464 518.338 0.388299C518.444 0.439374 518.525 0.524499 518.574 0.63516V0.63516Z" fill="white" fill-opacity="0.16"/>
<path d="M199.588 221.792C199.808 222.302 199.336 222.796 198.847 222.566C198.741 222.515 198.66 222.43 198.611 222.319C198.383 221.809 198.864 221.315 199.352 221.545C199.458 221.596 199.539 221.681 199.588 221.792Z" fill="white" fill-opacity="0.16"/>
<path d="M470.835 387.864C471.055 388.375 470.582 388.869 470.092 388.639C469.986 388.588 469.904 388.503 469.855 388.392C469.635 387.881 470.108 387.388 470.598 387.618C470.704 387.669 470.786 387.754 470.835 387.864Z" fill="white" fill-opacity="0.16"/>
<path d="M393.889 295.675C393.669 296.186 394.142 296.679 394.632 296.45C394.738 296.399 394.82 296.313 394.869 296.203C395.089 295.692 394.616 295.198 394.126 295.428C394.02 295.479 393.938 295.564 393.889 295.675Z" fill="white" fill-opacity="0.16"/>
<path d="M329.522 78.5983C329.302 79.109 329.775 79.6028 330.263 79.3729C330.369 79.3218 330.451 79.2367 330.499 79.1261C330.727 78.6153 330.247 78.1216 329.758 78.3514C329.653 78.4025 329.571 78.4876 329.522 78.5983Z" fill="white" fill-opacity="0.16"/>
<path d="M639.352 59.2486C639.132 59.7593 639.605 60.253 640.095 60.0232C640.201 59.9721 640.283 59.887 640.332 59.7763C640.552 59.2656 640.079 58.7719 639.589 59.0017C639.483 59.0528 639.401 59.1379 639.352 59.2486Z" fill="white" fill-opacity="0.16"/>
<path d="M283.601 176.253C283.381 176.764 283.853 177.258 284.342 177.028C284.447 176.977 284.529 176.892 284.578 176.781C284.806 176.27 284.325 175.777 283.837 176.006C283.731 176.058 283.649 176.143 283.601 176.253Z" fill="white" fill-opacity="0.16"/>
<path d="M221.754 361.237C222.244 361.474 222.718 360.974 222.497 360.464C222.448 360.354 222.367 360.269 222.26 360.218C221.771 359.989 221.297 360.481 221.517 360.991C221.566 361.101 221.648 361.186 221.754 361.237Z" fill="white" fill-opacity="0.16"/>
<path d="M124.423 189.689C124.203 190.2 124.676 190.694 125.164 190.464C125.27 190.413 125.351 190.328 125.4 190.217C125.628 189.706 125.148 189.213 124.659 189.442C124.553 189.493 124.472 189.579 124.423 189.689Z" fill="white" fill-opacity="0.16"/>
<path d="M204.022 99.0332C203.802 99.544 204.275 100.038 204.765 99.8079C204.871 99.7568 204.953 99.6717 205.002 99.561C205.222 99.0503 204.749 98.5565 204.259 98.7864C204.153 98.8374 204.071 98.9226 204.022 99.0332Z" fill="white" fill-opacity="0.16"/>
<path d="M70.9713 238.841C70.7433 239.35 71.2237 239.851 71.7122 239.613C71.8181 239.563 71.8995 239.478 71.9484 239.367C72.1682 238.858 71.696 238.365 71.2074 238.595C71.1015 238.646 71.0201 238.731 70.9713 238.841Z" fill="white" fill-opacity="0.16"/>
<path d="M109.145 262.231C108.917 262.742 109.397 263.236 109.886 263.006C109.992 262.955 110.073 262.87 110.122 262.759C110.342 262.248 109.87 261.754 109.381 261.984C109.275 262.035 109.194 262.12 109.145 262.231Z" fill="white" fill-opacity="0.4"/>
<path d="M300.244 236.397C300.024 236.908 300.496 237.401 300.985 237.171C301.091 237.12 301.172 237.035 301.221 236.925C301.449 236.414 300.969 235.92 300.48 236.15C300.374 236.201 300.293 236.286 300.244 236.397Z" fill="white" fill-opacity="0.16"/>
<path d="M25.1476 358.192C24.9278 358.703 25.4 359.196 25.8886 358.966C25.9945 358.915 26.0759 358.83 26.1247 358.72C26.3527 358.209 25.8723 357.715 25.3838 357.945C25.2779 357.996 25.1965 358.081 25.1476 358.192Z" fill="white" fill-opacity="0.16"/>
<path d="M229.449 253.722C229.229 254.233 229.701 254.727 230.19 254.497C230.296 254.446 230.377 254.361 230.426 254.25C230.654 253.739 230.174 253.245 229.685 253.475C229.579 253.526 229.498 253.611 229.449 253.722Z" fill="white" fill-opacity="0.16"/>
<path d="M552.076 472.995C551.856 473.506 552.329 473.999 552.819 473.77C552.925 473.719 553.007 473.633 553.056 473.523C553.276 473.012 552.803 472.518 552.313 472.748C552.207 472.799 552.125 472.884 552.076 472.995Z" fill="white" fill-opacity="0.16"/>
<path d="M494.637 407.071C494.417 407.582 494.889 408.076 495.378 407.846C495.484 407.795 495.565 407.71 495.614 407.599C495.842 407.088 495.362 406.594 494.873 406.824C494.767 406.875 494.686 406.961 494.637 407.071Z" fill="white" fill-opacity="0.16"/>
<path d="M597.546 406.749C597.325 407.26 597.799 407.753 598.289 407.523C598.395 407.472 598.476 407.387 598.525 407.277C598.746 406.766 598.272 406.272 597.782 406.502C597.676 406.553 597.595 406.638 597.546 406.749Z" fill="white" fill-opacity="0.16"/>
<path d="M418.462 74.2558C418.241 74.7665 418.715 75.2602 419.205 75.0304C419.311 74.9793 419.392 74.8942 419.441 74.7835C419.662 74.2728 419.188 73.7791 418.698 74.0089C418.592 74.06 418.511 74.1451 418.462 74.2558Z" fill="white" fill-opacity="0.16"/>
<path d="M604.441 46.7448C604.221 47.2555 604.694 47.7492 605.184 47.5194C605.29 47.4683 605.372 47.3832 605.421 47.2725C605.641 46.7618 605.168 46.2681 604.678 46.4979C604.572 46.549 604.49 46.6341 604.441 46.7448Z" fill="white" fill-opacity="0.16"/>
<path d="M678.627 13.7816C678.406 14.2924 678.88 14.7861 679.369 14.5563C679.476 14.5052 679.557 14.4201 679.606 14.3094C679.827 13.7987 679.353 13.3049 678.863 13.5348C678.757 13.5859 678.676 13.671 678.627 13.7816Z" fill="white" fill-opacity="0.4"/>
<path d="M547.714 41.0617C547.494 41.5724 547.968 42.0661 548.457 41.8363C548.564 41.7852 548.645 41.7001 548.694 41.5894C548.915 41.0787 548.441 40.585 547.951 40.8148C547.845 40.8659 547.763 40.951 547.714 41.0617Z" fill="white" fill-opacity="0.4"/>
<path d="M592.442 1.27823C592.222 1.78897 592.694 2.28269 593.183 2.05285C593.288 2.00178 593.37 1.91665 593.419 1.80599C593.647 1.29525 593.166 0.801532 592.678 1.03137C592.572 1.08244 592.49 1.16756 592.442 1.27823V1.27823Z" fill="white" fill-opacity="0.16"/>
<path d="M293.522 390.018C293.302 390.529 293.774 391.023 294.263 390.793C294.369 390.742 294.45 390.657 294.499 390.546C294.727 390.035 294.247 389.542 293.758 389.771C293.652 389.823 293.571 389.908 293.522 390.018Z" fill="white" fill-opacity="0.16"/>
<path d="M224.625 168.645C224.406 169.156 224.878 169.65 225.366 169.42C225.472 169.369 225.554 169.284 225.603 169.173C225.831 168.662 225.35 168.168 224.862 168.398C224.756 168.449 224.674 168.535 224.625 168.645Z" fill="white" fill-opacity="0.16"/>
<path d="M587.964 214.972C588.192 215.482 587.711 215.976 587.223 215.746C587.117 215.695 587.036 215.61 586.987 215.499C586.767 214.989 587.239 214.495 587.728 214.725C587.834 214.776 587.915 214.861 587.964 214.972Z" fill="white" fill-opacity="0.16"/>
<path d="M537.036 324.092C537.264 324.602 536.783 325.096 536.295 324.866C536.189 324.815 536.107 324.73 536.059 324.619C535.839 324.109 536.311 323.615 536.799 323.845C536.905 323.896 536.987 323.981 537.036 324.092Z" fill="white" fill-opacity="0.4"/>
<path d="M510.33 138.541C510.558 139.052 510.077 139.546 509.589 139.316C509.483 139.265 509.402 139.18 509.353 139.069C509.133 138.558 509.605 138.064 510.094 138.294C510.2 138.345 510.281 138.431 510.33 138.541Z" fill="white" fill-opacity="0.4"/>
<path d="M531.565 171.751C531.785 172.262 531.312 172.755 530.824 172.526C530.718 172.475 530.636 172.389 530.588 172.279C530.36 171.768 530.84 171.274 531.329 171.504C531.434 171.555 531.516 171.64 531.565 171.751Z" fill="white" fill-opacity="0.16"/>
<path d="M654.968 98.4772C655.188 98.9879 654.716 99.4817 654.227 99.2518C654.122 99.2008 654.04 99.1156 653.991 99.005C653.763 98.4942 654.244 98.0005 654.732 98.2303C654.838 98.2814 654.919 98.3665 654.968 98.4772Z" fill="white" fill-opacity="0.16"/>
<path d="M471.235 256.519C471.455 257.03 470.983 257.523 470.494 257.293C470.388 257.242 470.307 257.157 470.258 257.047C470.03 256.536 470.51 256.042 470.999 256.272C471.105 256.323 471.186 256.408 471.235 256.519Z" fill="white" fill-opacity="0.16"/>
<path d="M515.298 290.414C515.526 290.925 515.046 291.419 514.557 291.189C514.451 291.138 514.37 291.053 514.321 290.942C514.101 290.431 514.573 289.938 515.062 290.167C515.168 290.219 515.249 290.304 515.298 290.414Z" fill="white" fill-opacity="0.16"/>
<path d="M601.828 297.759C601.6 298.269 602.08 298.763 602.569 298.533C602.675 298.482 602.756 298.397 602.805 298.286C603.025 297.776 602.552 297.282 602.064 297.512C601.958 297.563 601.877 297.648 601.828 297.759Z" fill="white" fill-opacity="0.4"/>
<path d="M483.505 312.236C483.284 312.747 483.758 313.24 484.248 313.011C484.354 312.96 484.435 312.874 484.484 312.764C484.705 312.253 484.231 311.759 483.741 311.989C483.635 312.04 483.554 312.125 483.505 312.236Z" fill="white" fill-opacity="0.16"/>
<path d="M687.704 151.317C687.476 151.827 687.956 152.328 688.445 152.09C688.551 152.039 688.632 151.954 688.681 151.844C688.901 151.334 688.429 150.842 687.94 151.071C687.834 151.122 687.753 151.207 687.704 151.317Z" fill="white" fill-opacity="0.16"/>
<path d="M555.696 252.482C555.476 252.992 555.948 253.486 556.437 253.256C556.543 253.205 556.624 253.12 556.673 253.009C556.901 252.499 556.42 252.005 555.932 252.235C555.826 252.286 555.745 252.371 555.696 252.482Z" fill="white" fill-opacity="0.16"/>
<path d="M619.426 227.636C619.198 228.147 619.679 228.64 620.167 228.411C620.273 228.36 620.354 228.274 620.403 228.164C620.623 227.653 620.151 227.159 619.662 227.389C619.556 227.44 619.475 227.525 619.426 227.636Z" fill="white" fill-opacity="0.16"/>
<path d="M498.621 232.024C498.401 232.533 498.874 233.026 499.362 232.796C499.468 232.745 499.55 232.661 499.598 232.55C499.826 232.041 499.346 231.54 498.857 231.778C498.752 231.829 498.67 231.913 498.621 232.024Z" fill="white" fill-opacity="0.16"/>
<path d="M248.796 208.152C248.568 208.662 249.048 209.156 249.537 208.926C249.642 208.875 249.724 208.79 249.773 208.679C249.993 208.169 249.52 207.675 249.032 207.905C248.926 207.956 248.844 208.041 248.796 208.152Z" fill="white" fill-opacity="0.16"/>
<path d="M472.439 42.1984C472.211 42.7091 472.691 43.2029 473.18 42.973C473.285 42.9219 473.367 42.8368 473.416 42.7262C473.636 42.2154 473.163 41.7217 472.675 41.9515C472.569 42.0026 472.487 42.0877 472.439 42.1984Z" fill="white" fill-opacity="0.16"/>
<path d="M366.619 47.8816C366.391 48.3924 366.871 48.8861 367.36 48.6562C367.466 48.6052 367.547 48.5201 367.596 48.4094C367.816 47.8986 367.343 47.4049 366.855 47.6348C366.749 47.6858 366.668 47.771 366.619 47.8816Z" fill="white" fill-opacity="0.4"/>
<path d="M468.077 84.2549C467.849 84.7657 468.329 85.2594 468.818 85.0295C468.924 84.9785 469.005 84.8933 469.054 84.7827C469.274 84.2719 468.802 83.7782 468.313 84.0081C468.207 84.0591 468.126 84.1442 468.077 84.2549Z" fill="white" fill-opacity="0.16"/>
<path d="M340.613 175.017C340.385 175.528 340.865 176.021 341.354 175.791C341.46 175.74 341.541 175.655 341.59 175.545C341.81 175.034 341.338 174.54 340.849 174.77C340.743 174.821 340.662 174.906 340.613 175.017Z" fill="white" fill-opacity="0.16"/>
<path d="M466.849 177.384C466.621 177.895 467.102 178.388 467.59 178.159C467.696 178.107 467.777 178.022 467.826 177.912C468.046 177.401 467.574 176.907 467.085 177.137C466.979 177.188 466.898 177.273 466.849 177.384Z" fill="white" fill-opacity="0.16"/>
<path d="M393.379 108.814C393.159 109.324 393.632 109.818 394.122 109.588C394.228 109.537 394.31 109.452 394.359 109.342C394.579 108.831 394.106 108.337 393.616 108.567C393.51 108.618 393.428 108.703 393.379 108.814Z" fill="white" fill-opacity="0.16"/>
<path d="M652.445 390.045C652.225 390.556 652.697 391.05 653.186 390.82C653.292 390.769 653.373 390.683 653.422 390.573C653.65 390.062 653.169 389.568 652.681 389.798C652.575 389.849 652.494 389.934 652.445 390.045Z" fill="white" fill-opacity="0.16"/>
<path d="M689.539 359.328C689.311 359.839 689.792 360.333 690.28 360.103C690.386 360.052 690.467 359.967 690.516 359.856C690.736 359.345 690.264 358.852 689.775 359.081C689.669 359.132 689.588 359.218 689.539 359.328Z" fill="white" fill-opacity="0.4"/>
<path d="M690.631 193.504C690.403 194.015 690.883 194.508 691.372 194.278C691.478 194.227 691.559 194.142 691.608 194.032C691.828 193.521 691.355 193.027 690.867 193.257C690.761 193.308 690.68 193.393 690.631 193.504Z" fill="white" fill-opacity="0.4"/>
<path d="M217.442 129.116C217.222 129.626 217.695 130.12 218.185 129.89C218.291 129.839 218.373 129.754 218.422 129.643C218.642 129.133 218.169 128.639 217.679 128.869C217.573 128.92 217.491 129.005 217.442 129.116Z" fill="white" fill-opacity="0.4"/>
<path d="M90.6039 397.975C90.3834 398.486 90.857 398.979 91.3468 398.75C91.453 398.699 91.5346 398.613 91.5836 398.503C91.8041 397.992 91.3305 397.498 90.8407 397.728C90.7345 397.779 90.6529 397.864 90.6039 397.975Z" fill="white" fill-opacity="0.16"/>
<path d="M355.474 454.83C355.254 455.339 355.727 455.831 356.215 455.602C356.321 455.551 356.402 455.466 356.451 455.356C356.679 454.847 356.199 454.346 355.71 454.583C355.604 454.634 355.523 454.719 355.474 454.83Z" fill="white" fill-opacity="0.16"/>
<path d="M238.352 475.918C238.131 476.429 238.605 476.923 239.095 476.693C239.201 476.642 239.283 476.557 239.332 476.446C239.552 475.935 239.079 475.442 238.589 475.672C238.482 475.723 238.401 475.808 238.352 475.918Z" fill="white" fill-opacity="0.16"/>
<path d="M237.887 430.938C237.659 431.449 238.14 431.943 238.628 431.713C238.734 431.662 238.816 431.577 238.865 431.466C239.084 430.955 238.612 430.462 238.124 430.692C238.018 430.743 237.936 430.828 237.887 430.938Z" fill="white" fill-opacity="0.16"/>
<path d="M418.984 422.982C418.756 423.492 419.236 423.986 419.725 423.756C419.831 423.705 419.912 423.62 419.961 423.509C420.181 422.999 419.709 422.505 419.22 422.735C419.114 422.786 419.033 422.871 418.984 422.982Z" fill="white" fill-opacity="0.16"/>
<path d="M138.605 321.818C138.385 322.329 138.859 322.823 139.348 322.593C139.455 322.542 139.536 322.457 139.585 322.346C139.806 321.835 139.332 321.342 138.842 321.571C138.736 321.622 138.654 321.708 138.605 321.818Z" fill="white" fill-opacity="0.16"/>
<path d="M81.57 336.097C81.3501 336.608 81.8224 337.102 82.311 336.872C82.4168 336.821 82.4982 336.736 82.5471 336.625C82.7751 336.114 82.2947 335.621 81.8061 335.85C81.7002 335.901 81.6188 335.987 81.57 336.097Z" fill="white" fill-opacity="0.16"/>
</g>
</g>
<defs>
<clipPath id="clip0_1312_6065">
<rect width="700" height="486" fill="white"/>
</clipPath>
</defs>
</svg>
