<svg width="82" height="80" viewBox="0 0 82 80" fill="none" xmlns="http://www.w3.org/2000/svg">
<path d="M1.55396 56.1153L1.55396 24.8017M1.55396 56.1153L55.7907 56.1153C66.9382 56.1153 76.374 51.884 79.5429 46.0516C80.2815 44.6922 80.6796 43.2457 80.6796 41.7457M1.55396 56.1153L1.55396 33.4135M1.55396 56.1153L1.55396 64.7271M1.55396 24.8017C1.55396 16.8656 12.6971 10.4321 26.4429 10.4321C40.1886 10.4321 51.3318 16.8656 51.3318 24.8017L51.3318 27.376L55.7907 27.376C69.5365 27.376 80.6796 33.8095 80.6796 41.7457M1.55396 24.8017L1.55396 33.4135M80.6796 41.7457L80.6796 50.3604M80.6796 41.7457L80.6796 50.3575M1.55396 64.7271L1.55396 33.4135M1.55396 64.7271L55.7907 64.7271C69.5347 64.7271 80.6768 58.2952 80.6796 50.3604M80.6796 50.3575C80.6796 50.3585 80.6796 50.3595 80.6796 50.3604M80.6796 50.3575L80.6796 50.3604" stroke="white" stroke-opacity="0.1" stroke-linejoin="round"/>
<path d="M55.79 56.1155L1.55327 56.1155L1.55327 64.7273L55.79 64.7273C69.534 64.7273 80.6761 58.2954 80.6789 50.3607L80.6789 50.3577L80.6789 41.7459C80.6789 43.246 80.2808 44.6924 79.5422 46.0518C76.3734 51.8843 66.9375 56.1155 55.79 56.1155Z" fill="white" fill-opacity="0.12" stroke="white" stroke-opacity="0.1" stroke-linejoin="round"/>
<g filter="url(#filter0_b_1321_5956)">
<path d="M1.55395 33.4135L1.55395 56.1153L55.7907 56.1153C66.9382 56.1153 76.374 51.884 79.5429 46.0516C80.2815 44.6921 80.6796 43.2457 80.6796 41.7456C80.6796 33.8095 69.5364 27.376 55.7907 27.376L51.3317 27.376L51.3317 24.8017C51.3317 16.8656 40.1886 10.4321 26.4429 10.4321C12.6971 10.4321 1.55396 16.8656 1.55396 24.8017L1.55395 33.4135Z" fill="url(#paint0_linear_1321_5956)" fill-opacity="0.2"/>
<path d="M1.55395 33.4135L1.55395 56.1153L55.7907 56.1153C66.9382 56.1153 76.374 51.884 79.5429 46.0516C80.2815 44.6921 80.6796 43.2457 80.6796 41.7456C80.6796 33.8095 69.5364 27.376 55.7907 27.376L51.3317 27.376L51.3317 24.8017C51.3317 16.8656 40.1886 10.4321 26.4429 10.4321C12.6971 10.4321 1.55396 16.8656 1.55396 24.8017L1.55395 33.4135Z" stroke="white" stroke-opacity="0.1" stroke-linejoin="round"/>
</g>
<defs>
<filter id="filter0_b_1321_5956" x="-3.05835" y="6.07861" width="88.3503" height="54.3901" filterUnits="userSpaceOnUse" color-interpolation-filters="sRGB">
<feFlood flood-opacity="0" result="BackgroundImageFix"/>
<feGaussianBlur in="BackgroundImageFix" stdDeviation="2"/>
<feComposite in2="SourceAlpha" operator="in" result="effect1_backgroundBlur_1321_5956"/>
<feBlend mode="normal" in="SourceGraphic" in2="effect1_backgroundBlur_1321_5956" result="shape"/>
</filter>
<linearGradient id="paint0_linear_1321_5956" x1="58.7159" y1="23.1128" x2="30.1349" y2="72.6165" gradientUnits="userSpaceOnUse">
<stop stop-color="white"/>
<stop offset="1" stop-color="#000505" stop-opacity="0"/>
</linearGradient>
</defs>
</svg>
