<svg width="48" height="48" viewBox="0 0 48 48" fill="none" xmlns="http://www.w3.org/2000/svg">
<path d="M37.8074 30.2586C36.8681 32.4294 35.412 34.3374 33.566 35.8162C31.7201 37.2951 29.5404 38.3 27.217 38.7432C24.8937 39.1864 22.4971 39.0545 20.2364 38.359C17.9757 37.6635 15.9195 36.4256 14.247 34.7531C12.5745 33.0806 11.3365 31.0243 10.641 28.7636C9.94552 26.5029 9.81363 24.1064 10.2568 21.783C10.7 19.4596 11.7049 17.2799 13.1838 15.434C14.6626 13.5881 16.5706 12.1319 18.7414 11.1926" stroke="#42B8AA" stroke-width="1.5" stroke-linecap="round"/>
<path d="M38 24.5C38.5523 24.5 39.0036 24.0518 38.9655 23.5008C38.8576 21.9386 38.4972 20.4019 37.8963 18.9511C37.1676 17.1919 36.0995 15.5934 34.753 14.247C33.4066 12.9005 31.8081 11.8324 30.0489 11.1037C28.5981 10.5028 27.0614 10.1424 25.4992 10.0345C24.9483 9.99641 24.5 10.4477 24.5 11L24.5 22.5C24.5 23.6046 25.3954 24.5 26.5 24.5H38Z" fill="#51E0CF" fill-opacity="0.24" stroke="#42B8AA" stroke-width="1.5"/>
</svg>
