<svg width="48" height="48" viewBox="0 0 48 48" fill="none" xmlns="http://www.w3.org/2000/svg">
<path fill-rule="evenodd" clip-rule="evenodd" d="M10.5 11.7292H32.5V26.1361L21.5 22.2709L25.5333 32.8125H10.5V11.7292ZM29.3944 32.7121C30.8359 32.3829 31.9808 31.2749 32.363 29.8544L30.5 30.8959L29.3944 32.7121Z" fill="#51E070" fill-opacity="0.2"/>
<path d="M18.5 32.8125L13.5 32.8125C11.8431 32.8125 10.5 31.4694 10.5 29.8125L10.5 14.7292C10.5 13.0723 11.8431 11.7292 13.5 11.7292L29.5 11.7292C31.1569 11.7292 32.5 13.0723 32.5 14.7292L32.5 19.3958" stroke="#42B85C" stroke-width="1.5" stroke-linecap="round" stroke-linejoin="round"/>
<path d="M21.5 22.2709L27 36.6459L30.5 30.8959L36.5 27.5417L21.5 22.2709Z" fill="#51E070" fill-opacity="0.2" stroke="#42B85C" stroke-width="1.5" stroke-linejoin="round"/>
</svg>
