<svg width="48" height="48" viewBox="0 0 48 48" fill="none" xmlns="http://www.w3.org/2000/svg">
<path d="M11.5 34.5H14.5H33.5H36.5C37.6046 34.5 38.5 33.6046 38.5 32.5V13.5C38.5 11.8431 37.1569 10.5 35.5 10.5H12.5C10.8431 10.5 9.5 11.8431 9.5 13.5V32.5C9.5 33.6046 10.3954 34.5 11.5 34.5Z" fill="#E05151" fill-opacity="0.2"/>
<path d="M22.9216 30.5277L19.4691 35.4188C18.8519 36.2932 19.4772 37.5 20.5475 37.5H27.4525C28.5228 37.5 29.1481 36.2932 28.5309 35.4188L25.0784 30.5277C24.5525 29.7827 23.4475 29.7827 22.9216 30.5277Z" fill="#E05151" fill-opacity="0.16" stroke="#B84242" stroke-width="1.5" stroke-linecap="round" stroke-linejoin="round"/>
<path d="M14.5 34.5H11.5C10.3954 34.5 9.5 33.6046 9.5 32.5V13.5C9.5 11.8431 10.8431 10.5 12.5 10.5H35.5C37.1569 10.5 38.5 11.8431 38.5 13.5V32.5C38.5 33.6046 37.6046 34.5 36.5 34.5H33.5" stroke="#B84242" stroke-width="1.5" stroke-linecap="round" stroke-linejoin="round"/>
</svg>
