<svg width="32" height="32" viewBox="0 0 32 32" fill="none" xmlns="http://www.w3.org/2000/svg">
<path d="M15.3335 26.667C20.8563 26.667 25.3335 22.1898 25.3335 16.667C25.3335 16.1179 25.2892 15.5792 25.2041 15.0541C24.5744 18.2947 21.7211 20.7411 18.2965 20.7411C14.41 20.7411 11.2594 17.5905 11.2594 13.704C11.2594 10.2794 13.7058 7.42607 16.9463 6.79638C16.4213 6.71124 15.8826 6.66699 15.3335 6.66699C9.81065 6.66699 5.3335 11.1441 5.3335 16.667C5.3335 22.1898 9.81065 26.667 15.3335 26.667Z" fill="#E0A751"/>
<path d="M15.3335 26.667C20.8563 26.667 25.3335 22.1898 25.3335 16.667C25.3335 16.1179 25.2892 15.5792 25.2041 15.0541C24.5744 18.2947 21.7211 20.7411 18.2965 20.7411C14.41 20.7411 11.2594 17.5905 11.2594 13.704C11.2594 10.2794 13.7058 7.42607 16.9463 6.79638C16.4213 6.71124 15.8826 6.66699 15.3335 6.66699C9.81065 6.66699 5.3335 11.1441 5.3335 16.667C5.3335 22.1898 9.81065 26.667 15.3335 26.667Z" fill="url(#paint0_linear_1319_5921)" fill-opacity="0.4"/>
<defs>
<linearGradient id="paint0_linear_1319_5921" x1="15.3335" y1="6.66699" x2="15.3335" y2="21.9286" gradientUnits="userSpaceOnUse">
<stop stop-color="white"/>
<stop offset="1" stop-color="white" stop-opacity="0"/>
</linearGradient>
</defs>
</svg>
