<svg width="32" height="32" viewBox="0 0 32 32" fill="none" xmlns="http://www.w3.org/2000/svg">
<path d="M14.6667 16C18.3486 16 21.3334 13.0152 21.3334 9.33331C21.3334 13.0152 24.3182 16 28.0001 16C24.3182 16 21.3334 18.9847 21.3334 22.6666C21.3334 18.9847 18.3486 16 14.6667 16Z" fill="#E05151"/>
<path d="M14.6667 16C18.3486 16 21.3334 13.0152 21.3334 9.33331C21.3334 13.0152 24.3182 16 28.0001 16C24.3182 16 21.3334 18.9847 21.3334 22.6666C21.3334 18.9847 18.3486 16 14.6667 16Z" fill="url(#paint0_linear_1319_5922)" fill-opacity="0.4"/>
<path d="M14.6667 16C18.3486 16 21.3334 13.0152 21.3334 9.33331C21.3334 13.0152 24.3182 16 28.0001 16C24.3182 16 21.3334 18.9847 21.3334 22.6666C21.3334 18.9847 18.3486 16 14.6667 16Z" stroke="#E05151" stroke-width="2" stroke-linecap="round" stroke-linejoin="round"/>
<path d="M14.6667 16C18.3486 16 21.3334 13.0152 21.3334 9.33331C21.3334 13.0152 24.3182 16 28.0001 16C24.3182 16 21.3334 18.9847 21.3334 22.6666C21.3334 18.9847 18.3486 16 14.6667 16Z" stroke="url(#paint1_linear_1319_5922)" stroke-opacity="0.4" stroke-width="2" stroke-linecap="round" stroke-linejoin="round"/>
<path d="M10.6667 8.66669C11.7713 8.66669 12.6667 7.77126 12.6667 6.66669C12.6667 7.77126 13.5622 8.66669 14.6667 8.66669C13.5622 8.66669 12.6667 9.56212 12.6667 10.6667C12.6667 9.56212 11.7713 8.66669 10.6667 8.66669Z" stroke="#E05151" stroke-width="2" stroke-linecap="round" stroke-linejoin="round"/>
<path d="M10.6667 8.66669C11.7713 8.66669 12.6667 7.77126 12.6667 6.66669C12.6667 7.77126 13.5622 8.66669 14.6667 8.66669C13.5622 8.66669 12.6667 9.56212 12.6667 10.6667C12.6667 9.56212 11.7713 8.66669 10.6667 8.66669Z" stroke="url(#paint2_linear_1319_5922)" stroke-opacity="0.4" stroke-width="2" stroke-linecap="round" stroke-linejoin="round"/>
<path d="M4 14.6666C4.73638 14.6666 5.33333 14.0697 5.33333 13.3333C5.33333 14.0697 5.93029 14.6666 6.66667 14.6666C5.93029 14.6666 5.33333 15.2636 5.33333 16C5.33333 15.2636 4.73638 14.6666 4 14.6666Z" stroke="#E05151" stroke-width="2" stroke-linecap="round" stroke-linejoin="round"/>
<path d="M4 14.6666C4.73638 14.6666 5.33333 14.0697 5.33333 13.3333C5.33333 14.0697 5.93029 14.6666 6.66667 14.6666C5.93029 14.6666 5.33333 15.2636 5.33333 16C5.33333 15.2636 4.73638 14.6666 4 14.6666Z" stroke="url(#paint3_linear_1319_5922)" stroke-opacity="0.4" stroke-width="2" stroke-linecap="round" stroke-linejoin="round"/>
<path d="M6.66675 22.6667C8.87589 22.6667 10.6667 20.8758 10.6667 18.6667C10.6667 20.8758 12.4576 22.6667 14.6667 22.6667C12.4576 22.6667 10.6667 24.4575 10.6667 26.6667C10.6667 24.4575 8.87589 22.6667 6.66675 22.6667Z" fill="#E05151"/>
<path d="M6.66675 22.6667C8.87589 22.6667 10.6667 20.8758 10.6667 18.6667C10.6667 20.8758 12.4576 22.6667 14.6667 22.6667C12.4576 22.6667 10.6667 24.4575 10.6667 26.6667C10.6667 24.4575 8.87589 22.6667 6.66675 22.6667Z" fill="url(#paint4_linear_1319_5922)" fill-opacity="0.4"/>
<path d="M6.66675 22.6667C8.87589 22.6667 10.6667 20.8758 10.6667 18.6667C10.6667 20.8758 12.4576 22.6667 14.6667 22.6667C12.4576 22.6667 10.6667 24.4575 10.6667 26.6667C10.6667 24.4575 8.87589 22.6667 6.66675 22.6667Z" stroke="#E05151" stroke-width="2" stroke-linecap="round" stroke-linejoin="round"/>
<path d="M6.66675 22.6667C8.87589 22.6667 10.6667 20.8758 10.6667 18.6667C10.6667 20.8758 12.4576 22.6667 14.6667 22.6667C12.4576 22.6667 10.6667 24.4575 10.6667 26.6667C10.6667 24.4575 8.87589 22.6667 6.66675 22.6667Z" stroke="url(#paint5_linear_1319_5922)" stroke-opacity="0.4" stroke-width="2" stroke-linecap="round" stroke-linejoin="round"/>
<defs>
<linearGradient id="paint0_linear_1319_5922" x1="21.3334" y1="9.33331" x2="21.3334" y2="19.5077" gradientUnits="userSpaceOnUse">
<stop stop-color="white"/>
<stop offset="1" stop-color="white" stop-opacity="0"/>
</linearGradient>
<linearGradient id="paint1_linear_1319_5922" x1="21.3334" y1="9.33331" x2="21.3334" y2="19.5077" gradientUnits="userSpaceOnUse">
<stop stop-color="white"/>
<stop offset="1" stop-color="white" stop-opacity="0"/>
</linearGradient>
<linearGradient id="paint2_linear_1319_5922" x1="12.6667" y1="6.66669" x2="12.6667" y2="9.71901" gradientUnits="userSpaceOnUse">
<stop stop-color="white"/>
<stop offset="1" stop-color="white" stop-opacity="0"/>
</linearGradient>
<linearGradient id="paint3_linear_1319_5922" x1="5.33333" y1="13.3333" x2="5.33333" y2="15.3682" gradientUnits="userSpaceOnUse">
<stop stop-color="white"/>
<stop offset="1" stop-color="white" stop-opacity="0"/>
</linearGradient>
<linearGradient id="paint4_linear_1319_5922" x1="10.6667" y1="18.6667" x2="10.6667" y2="24.7713" gradientUnits="userSpaceOnUse">
<stop stop-color="white"/>
<stop offset="1" stop-color="white" stop-opacity="0"/>
</linearGradient>
<linearGradient id="paint5_linear_1319_5922" x1="10.6667" y1="18.6667" x2="10.6667" y2="24.7713" gradientUnits="userSpaceOnUse">
<stop stop-color="white"/>
<stop offset="1" stop-color="white" stop-opacity="0"/>
</linearGradient>
</defs>
</svg>
