<svg width="100" height="32" viewBox="0 0 100 32" fill="none" xmlns="http://www.w3.org/2000/svg">
<path d="M15.3335 26.667C20.8563 26.667 25.3335 22.1898 25.3335 16.667C25.3335 16.1179 25.2892 15.5792 25.2041 15.0541C24.5744 18.2947 21.7211 20.7411 18.2965 20.7411C14.41 20.7411 11.2594 17.5905 11.2594 13.704C11.2594 10.2794 13.7058 7.42607 16.9463 6.79638C16.4213 6.71124 15.8826 6.66699 15.3335 6.66699C9.81065 6.66699 5.3335 11.1441 5.3335 16.667C5.3335 22.1898 9.81065 26.667 15.3335 26.667Z" fill="#51E0CF"/>
<path d="M15.3335 26.667C20.8563 26.667 25.3335 22.1898 25.3335 16.667C25.3335 16.1179 25.2892 15.5792 25.2041 15.0541C24.5744 18.2947 21.7211 20.7411 18.2965 20.7411C14.41 20.7411 11.2594 17.5905 11.2594 13.704C11.2594 10.2794 13.7058 7.42607 16.9463 6.79638C16.4213 6.71124 15.8826 6.66699 15.3335 6.66699C9.81065 6.66699 5.3335 11.1441 5.3335 16.667C5.3335 22.1898 9.81065 26.667 15.3335 26.667Z" fill="url(#paint0_linear_808_7300)" fill-opacity="0.4"/>
<path d="M42.672 25L36.24 7.72H39.672L44.568 22L49.368 7.72H52.8L46.392 25H42.672ZM59.0151 25.288C55.1511 25.288 52.8471 22.48 52.8471 18.76C52.8471 15.04 55.1511 12.232 59.0151 12.232C62.8791 12.232 65.1831 14.944 65.1831 19V19.72H55.8471C56.1111 21.664 57.2151 22.912 59.0151 22.912C60.4791 22.912 61.4631 22.288 61.9911 21.184H64.9431C64.1271 23.656 61.9911 25.288 59.0151 25.288ZM55.8711 17.56H62.1351C61.8231 15.736 60.7431 14.608 59.0151 14.608C57.2871 14.608 56.2071 15.736 55.8711 17.56ZM66.2666 25V12.52H69.1946V14.752C70.0346 13 71.3786 12.376 72.9626 12.376H73.9466V15.16H72.8426C70.7306 15.16 69.2906 16.048 69.2906 18.952V25H66.2666ZM78.4926 25L73.7406 12.52H76.9806L80.2206 22.168L83.3886 12.52H86.6526L81.9006 25H78.4926ZM92.7444 25.288C88.8804 25.288 86.5764 22.48 86.5764 18.76C86.5764 15.04 88.8804 12.232 92.7444 12.232C96.6084 12.232 98.9124 14.944 98.9124 19V19.72H89.5764C89.8404 21.664 90.9444 22.912 92.7444 22.912C94.2084 22.912 95.1924 22.288 95.7204 21.184H98.6724C97.8564 23.656 95.7204 25.288 92.7444 25.288ZM89.6004 17.56H95.8644C95.5524 15.736 94.4724 14.608 92.7444 14.608C91.0164 14.608 89.9364 15.736 89.6004 17.56Z" fill="white"/>
<defs>
<linearGradient id="paint0_linear_808_7300" x1="15.3335" y1="6.66699" x2="15.3335" y2="21.9286" gradientUnits="userSpaceOnUse">
<stop stop-color="white"/>
<stop offset="1" stop-color="white" stop-opacity="0"/>
</linearGradient>
</defs>
</svg>
